<?xml version="1.0" encoding="utf-8"?>
<!-- Generator: Adobe Illustrator 18.0.0, SVG Export Plug-In . SVG Version: 6.00 Build 0)  -->
<!DOCTYPE svg PUBLIC "-//W3C//DTD SVG 1.1//EN" "http://www.w3.org/Graphics/SVG/1.1/DTD/svg11.dtd">
<svg version="1.1" id="Layer_1" xmlns="http://www.w3.org/2000/svg" xmlns:xlink="http://www.w3.org/1999/xlink" x="0px" y="0px"
	 viewBox="0 0 970 360" enable-background="new 0 0 970 360" xml:space="preserve">
<rect fill="#1A1A1A" width="970" height="360"/>
<g>
	<defs>
		<rect id="SVGID_3_" width="970" height="360"/>
	</defs>
	<clipPath id="SVGID_1_">
		<use xlink:href="#SVGID_3_"  overflow="visible"/>
	</clipPath>
	<g clip-path="url(#SVGID_1_)">
		<path d="M970.6,238.1c-7,15-24.4,45-47.9,45c-10.5,0-13-8-13-16c0-10.5,4-22,8-33l32.4-92.6c5.5-15,9.5-25,9.5-36.5
			c0-22-18-39-45.4-39c-27.4,0-59.3,22-91.3,64.6h-1l0.1-0.2c-0.6,0-3,0-6.3,0c7.7-41.7,8.8-77.7,3.8-106.8
			c-0.4-2.5-0.9-4.9-1.4-7.3c-5,32.8-14.3,69.5-28.3,109.4c-0.5,1.3-1,2.9-1.6,4.7c-0.1,0-0.1,0-0.2,0L745,254.3
			c-3.3,9.4-6.7,19.2-10.3,29.4h0h34.9L807,179.1C828.5,119,879.8,73,909.2,73c14.5,0,19.4,10,19.4,18.5c0,6-1,11.5-4,20
			l-41.9,119.6c-3.5,10.5-6,20-6,28.5c0,21.5,16.5,30.5,37.9,30.5c38.9,0,54.8-36.5,61.3-49.5L970.6,238.1z"/>
		<path d="M171.3,225.8c0.1,0,0.1,0,0.2,0l43.1-123.9c3.3-9.4,6.7-19.2,10.3-29.4h0H190l0,0c0,0.1-0.1,0.2-0.1,0.3l-37.3,104.3
			c-21.4,60.1-72.8,106.1-102.2,106.1c-14.5,0-19.5-10-19.5-18.5c0-6,1-11.5,4-20L71,141.5h0l24.2-69.1H59.2l-24.2,69.1L9.5,214.6
			c-5.5,15-9.5,25-9.5,36.5c0,22,17.9,39,45.4,39c27.4,0,59.3-22,91.2-64.6h1l-0.1,0.2c0.6,0,3,0,6.3,0
			c-7.7,41.7-8.8,77.7-3.8,106.8c0.4,2.5,0.9,4.9,1.4,7.3c5-32.8,14.3-69.5,28.3-109.4C170.2,229.1,170.7,227.5,171.3,225.8z"/>
		<path d="M819.6-76.4c-8.5-49.3-33.1-90.9-97.8-86.1c-55.1,9-98.3,37.1-134.1,79.1C565-56.8,545.3-24.5,527.4,12
			c7.4,8.9,11.8,20.4,11.8,32.8c0,27.7-21.9,50.3-49.3,51.3l-27.3,78c-9.5,24.2-19.3,47.1-29.8,68.6c-8.1,15.8-24.4,40.4-45.6,40.4
			c-10.5,0-13-8-13-16c0-10.5,4-22,8-33l32.4-92.6c5.5-15,9.5-25,9.5-36.5c0-22-17.9-39-45.4-39c-26.9,0-58.1,21.2-89.4,62.1
			l19.5-55.6H273l-20.3,57.9h0l-3.8,10.9l-0.1,0.3l0,0l-49.5,142.1h34.9l37.4-104.6C293,119,344.4,73,373.8,73
			c14.5,0,19.4,10,19.4,18.5c0,6-1,11.5-4,20l-41.9,119.6c-3.5,10.5-6,20-6,28.5c0,21.5,16.5,30.5,37.9,30.5
			c14.9,0,26.4-5.4,35.3-12.7c-43.2,76-97.7,128.2-176.8,141.2c-61.5,4.6-86.7-32.8-96.4-78.8c-5.5,35.7-5.9,66.9-1.4,92.6
			c8.5,49.3,33.1,90.9,97.8,86.1C345.2,501,407.2,411.1,457.3,287.7c5.2,1.7,11,2.5,17.4,2.5c38.9,0,55.2-37.4,61.3-49.5
			c0.7-1.3,1.5-3.1,2.6-5.1c10.4,31,36.7,54.7,72.8,54.7c56.3,0,130.1-66.1,130.1-142.6c0-37-23.9-85.1-76.3-85.1
			c-58.3,0-131.6,62.1-131.6,142.6c0,7.4,0.8,14.6,2.5,21.6c-2.2,4.5-4.1,8.4-5.6,11.4c-7.3,15.1-24.4,45-47.9,45
			c-10.5,0-13-8-13-16c0-9,2.9-18.7,6.3-28.2c0.2-0.7,0.5-1.4,0.8-2.1c2.1-5.9,4.1-11.8,6.2-17.6C536.7,70.2,600.1-42.6,721.8-62.5
			c61.5-4.6,86.7,32.8,96.4,78.8C823.7-19.5,824-50.7,819.6-76.4z M662.7,69.5c32.9,0,45.9,20.5,45.9,52c0,41-35.9,161.6-98.7,161.6
			c-25.4,0-43.4-16-43.4-50C566.5,180.6,603.9,69.5,662.7,69.5z"/>
		<path d="M488,85.6c22.4,0,40.6-18.3,40.6-40.8C528.7,22.3,510.4,4,488,4c-22.4,0-40.6,18.3-40.6,40.8
			C447.4,67.3,465.6,85.6,488,85.6z"/>
	</g>
</g>
</svg>
