<?xml version="1.0" encoding="utf-8"?>
<!-- Generator: Adobe Illustrator 18.0.0, SVG Export Plug-In . SVG Version: 6.00 Build 0)  -->
<!DOCTYPE svg PUBLIC "-//W3C//DTD SVG 1.1//EN" "http://www.w3.org/Graphics/SVG/1.1/DTD/svg11.dtd">
<svg version="1.1" id="Layer_1" xmlns="http://www.w3.org/2000/svg" xmlns:xlink="http://www.w3.org/1999/xlink" x="0px" y="0px"
	 viewBox="0 0 25 50" enable-background="new 0 0 25 50" xml:space="preserve">
<rect y="25" fill="#FFDC00" width="25" height="25"/>
<rect x="2" y="27" fill="#FFFFFF" width="21" height="21"/>
<path id="f_2_" d="M13.8,45.6v-7.4h2.5l0.4-2.9h-2.9v-1.8c0-0.8,0.2-1.4,1.4-1.4l1.5,0v-2.6c-0.3,0-1.2-0.1-2.2-0.1
	c-2.2,0-3.7,1.3-3.7,3.8v2.1H8.3v2.9h2.5v7.4H13.8z"/>
<path fill="#FFDC00" d="M0,0v25h25V0H0z M16.7,7.1l-1.5,0c-1.2,0-1.4,0.6-1.4,1.4v1.8h2.9l-0.4,2.9h-2.5v7.4h-3v-7.4H8.3v-2.9h2.5
	V8.2c0-2.5,1.5-3.8,3.7-3.8c1.1,0,2,0.1,2.2,0.1V7.1z"/>
</svg>
