<?xml version="1.0" encoding="utf-8"?>
<!-- Generator: Adobe Illustrator 18.0.0, SVG Export Plug-In . SVG Version: 6.00 Build 0)  -->
<!DOCTYPE svg PUBLIC "-//W3C//DTD SVG 1.1//EN" "http://www.w3.org/Graphics/SVG/1.1/DTD/svg11.dtd">
<svg version="1.1" id="Layer_1" xmlns="http://www.w3.org/2000/svg" xmlns:xlink="http://www.w3.org/1999/xlink" x="0px" y="0px"
	 viewBox="0 0 25 50" enable-background="new 0 0 25 50" xml:space="preserve">
<rect y="25" fill="#FFDC00" width="25" height="25"/>
<rect x="2" y="27" fill="#FFFFFF" width="21" height="21"/>
<path fill="#FFDC00" d="M0,0v25h25V0H0z M18.1,10.2c0,0.1,0,0.2,0,0.3c0,3.4-2.6,7.4-7.4,7.4c-1.5,0-2.8-0.4-4-1.2
	c0.2,0,0.4,0,0.6,0c1.2,0,2.3-0.4,3.2-1.1c-1.1,0-2.1-0.8-2.4-1.8c0.2,0,0.3,0,0.5,0c0.2,0,0.4,0,0.6-0.1C8,13.6,7,12.5,7,11.3
	c0,0,0,0,0,0c1,0.2,0.8,0.3,1.3,0.3c-0.7-0.5-1.1-1.3-1.1-2.2c0-0.5,0.2-0.9,0.4-1.3c1.3,1.6,3.2,2.6,5.4,2.7c0-0.2-0.1-0.4-0.1-0.6
	c0-1.4,1.2-2.6,2.6-2.6c0.7,0,1.4,0.3,1.9,0.8C18,8.3,18.5,8.1,19,7.8c-0.2,0.6-0.6,1.1-1.1,1.4c0.5-0.1,1-0.2,1.5-0.4
	C19,9.3,18.6,9.8,18.1,10.2z"/>
<path d="M19,32.8c-0.5,0.3-1.1,0.5-1.7,0.6c-0.5-0.5-1.2-0.8-1.9-0.8c-1.4,0-2.6,1.2-2.6,2.6c0,0.2,0,0.4,0.1,0.6
	c-2.2-0.1-4.1-1.1-5.4-2.7c-0.2,0.4-0.4,0.8-0.4,1.3c0,0.9,0.5,1.7,1.2,2.2c-0.4,0-0.8-0.1-1.2-0.3c0,0,0,0,0,0
	c0,1.3,0.9,2.3,2.1,2.6c-0.2,0.1-0.4,0.1-0.7,0.1c-0.2,0-0.3,0-0.5,0c0.3,1,1.3,1.8,2.4,1.8c-0.9,0.7-2,1.1-3.2,1.1
	c-0.2,0-0.4,0-0.6,0c1.2,0.7,2.5,1.2,4,1.2c4.8,0,7.4-4,7.4-7.4c0-0.1,0-0.2,0-0.3c0.5-0.4,1-0.8,1.3-1.3c-0.5,0.2-1,0.3-1.5,0.4
	C18.4,33.9,18.8,33.4,19,32.8z"/>
</svg>
