<?xml version="1.0" encoding="utf-8"?>
<!-- Generator: Adobe Illustrator 18.0.0, SVG Export Plug-In . SVG Version: 6.00 Build 0)  -->
<!DOCTYPE svg PUBLIC "-//W3C//DTD SVG 1.1//EN" "http://www.w3.org/Graphics/SVG/1.1/DTD/svg11.dtd">
<svg version="1.1" id="Layer_1" xmlns="http://www.w3.org/2000/svg" xmlns:xlink="http://www.w3.org/1999/xlink" x="0px" y="0px"
	 viewBox="0 0 130 90" enable-background="new 0 0 130 90" xml:space="preserve">
<g>
	<path fill="#FFDC00" d="M129.3,52.9c-0.9,2-3.3,5.9-6.4,5.9c-1.4,0-1.7-1.1-1.7-2.1c0-1.4,0.5-2.9,1.1-4.4l4.3-12.2
		c0.7-2,1.3-3.3,1.3-4.8c0-2.9-2.4-5.2-6-5.2c-3.7,0-7.9,2.9-12.2,8.5h-0.1l0,0c-0.1,0-0.4,0-0.8,0c1-5.5,1.2-10.3,0.5-14.1
		c-0.1-0.3-0.1-0.6-0.2-1c-0.7,4.3-1.9,9.2-3.8,14.4c-0.1,0.2-0.1,0.4-0.2,0.6c0,0,0,0,0,0l-5.7,16.4c-0.4,1.2-0.9,2.5-1.4,3.9h0
		h4.6l5-13.8c2.9-7.9,9.7-14,13.6-14c1.9,0,2.6,1.3,2.6,2.4c0,0.8-0.1,1.5-0.5,2.6L117.6,52c-0.5,1.4-0.8,2.6-0.8,3.8
		c0,2.8,2.2,4,5,4c5.2,0,7.3-4.8,8.2-6.5L129.3,52.9z"/>
	<path fill="#FFDC00" d="M22.8,51.3C22.8,51.3,22.8,51.3,22.8,51.3l5.8-16.4c0.4-1.2,0.9-2.5,1.4-3.9h0h-4.6l0,0c0,0,0,0,0,0
		l-5,13.8c-2.9,7.9-9.7,14-13.6,14c-1.9,0-2.6-1.3-2.6-2.4c0-0.8,0.1-1.5,0.5-2.6l4.8-13.6h0l3.2-9.1H7.9l-3.2,9.1l-3.4,9.6
		c-0.7,2-1.3,3.3-1.3,4.8c0,2.9,2.4,5.2,6,5.2c3.7,0,7.9-2.9,12.2-8.5h0.1l0,0c0.1,0,0.4,0,0.8,0c-1,5.5-1.2,10.3-0.5,14.1
		c0.1,0.3,0.1,0.6,0.2,1c0.7-4.3,1.9-9.2,3.8-14.4C22.7,51.7,22.7,51.5,22.8,51.3z"/>
	<path fill="#FFDC00" d="M109.2,11.4c-1.1-6.5-4.4-12-13-11.4C88.8,1.2,83,5,78.3,10.5c-3,3.5-5.6,7.8-8,12.6c1,1.2,1.6,2.7,1.6,4.3
		c0,3.7-2.9,6.6-6.6,6.8l-3.6,10.3c-1.3,3.2-2.6,6.2-4,9.1c-1.1,2.1-3.2,5.3-6.1,5.3c-1.4,0-1.7-1.1-1.7-2.1c0-1.4,0.5-2.9,1.1-4.4
		l4.3-12.2c0.7-2,1.3-3.3,1.3-4.8c0-2.9-2.4-5.2-6-5.2c-3.6,0-7.7,2.8-11.9,8.2l2.6-7.3h-4.8l-2.7,7.6h0l-0.5,1.4l0,0l0,0l-6.6,18.8
		h4.7l5-13.8c2.9-7.9,9.7-14,13.6-14c1.9,0,2.6,1.3,2.6,2.4c0,0.8-0.1,1.5-0.5,2.6L46.3,52c-0.5,1.4-0.8,2.6-0.8,3.8
		c0,2.8,2.2,4,5,4c2,0,3.5-0.7,4.7-1.7c-5.8,10-13,16.9-23.5,18.6c-8.2,0.6-11.6-4.3-12.8-10.4c-0.7,4.7-0.8,8.8-0.2,12.2
		c1.1,6.5,4.4,12,13,11.4C46,87.6,54.2,75.8,60.9,59.5c0.7,0.2,1.5,0.3,2.3,0.3c5.2,0,7.4-4.9,8.2-6.5c0.1-0.2,0.2-0.4,0.3-0.7
		c1.4,4.1,4.9,7.2,9.7,7.2c7.5,0,17.3-8.7,17.3-18.8c0-4.9-3.2-11.2-10.2-11.2c-7.8,0-17.5,8.2-17.5,18.8c0,1,0.1,1.9,0.3,2.9
		c-0.3,0.6-0.6,1.1-0.7,1.5c-1,2-3.3,5.9-6.4,5.9c-1.4,0-1.7-1.1-1.7-2.1c0-1.2,0.4-2.5,0.8-3.7c0-0.1,0.1-0.2,0.1-0.3
		c0.3-0.8,0.6-1.6,0.8-2.3c7.2-19.7,15.6-34.6,31.8-37.2c8.2-0.6,11.5,4.3,12.8,10.4C109.7,18.9,109.8,14.8,109.2,11.4z M88.3,30.7
		c4.4,0,6.1,2.7,6.1,6.9c0,5.4-4.8,21.3-13.2,21.3c-3.4,0-5.8-2.1-5.8-6.6C75.5,45.3,80.4,30.7,88.3,30.7z"/>
	<path fill="#FFDC00" d="M65,32.8c3,0,5.4-2.4,5.4-5.4c0-3-2.4-5.4-5.4-5.4c-3,0-5.4,2.4-5.4,5.4C59.6,30.4,62,32.8,65,32.8z"/>
</g>
</svg>
