<?xml version="1.0" encoding="utf-8"?>
<!-- Generator: Adobe Illustrator 18.0.0, SVG Export Plug-In . SVG Version: 6.00 Build 0)  -->
<!DOCTYPE svg PUBLIC "-//W3C//DTD SVG 1.1//EN" "http://www.w3.org/Graphics/SVG/1.1/DTD/svg11.dtd">
<svg version="1.1" id="Layer_1" xmlns="http://www.w3.org/2000/svg" xmlns:xlink="http://www.w3.org/1999/xlink" x="0px" y="0px"
	 viewBox="0 0 320 453" enable-background="new 0 0 320 453" xml:space="preserve">
<line fill="none" stroke="#FFDC00" stroke-miterlimit="10" x1="0" y1="138.1" x2="320" y2="138.1"/>
<circle stroke="#FFDC00" stroke-miterlimit="10" cx="16" cy="138.1" r="10"/>
<g>
	<g>
		<path fill="#231815" d="M16,142c-2.2,0-2.5-2.4-2.5-4.2c0-1.8,0.3-3.9,2.5-3.9c2.2,0,2.5,2.2,2.5,3.9C18.5,139.6,18.2,142,16,142z
			 M16,134.4c-1.7,0-1.9,2.2-1.9,3.4c0,1.2,0.2,3.6,1.9,3.6c1.7,0,1.9-2.4,1.9-3.6C17.9,136.6,17.7,134.4,16,134.4z"/>
	</g>
	<g>
		<path fill="#FFDC00" d="M16,142c-2.2,0-2.5-2.4-2.5-4.2c0-1.8,0.3-3.9,2.5-3.9c2.2,0,2.5,2.2,2.5,3.9C18.5,139.6,18.2,142,16,142z
			 M16,134.4c-1.7,0-1.9,2.2-1.9,3.4c0,1.2,0.2,3.6,1.9,3.6c1.7,0,1.9-2.4,1.9-3.6C17.9,136.6,17.7,134.4,16,134.4z"/>
	</g>
</g>
<line fill="none" stroke="#FFDC00" stroke-miterlimit="10" x1="0" y1="193.1" x2="320" y2="193.1"/>
<circle stroke="#FFDC00" stroke-miterlimit="10" cx="16" cy="193.1" r="10"/>
<g>
	<g>
		<path fill="#231815" d="M14.5,196.3h1.2v-6.6c-0.6,0.6-1.2,1.1-1.9,1.6v-0.7c0.6-0.5,1.4-1,1.9-1.6h0.7v7.3h1.2v0.5h-3.1V196.3z"
			/>
	</g>
	<g>
		<path fill="#FFDC00" d="M14.5,196.3h1.2v-6.6c-0.6,0.6-1.2,1.1-1.9,1.6v-0.7c0.6-0.5,1.4-1,1.9-1.6h0.7v7.3h1.2v0.5h-3.1V196.3z"
			/>
	</g>
</g>
<line fill="none" stroke="#FFDC00" stroke-miterlimit="10" x1="0" y1="248.1" x2="320" y2="248.1"/>
<circle stroke="#FFDC00" stroke-miterlimit="10" cx="16" cy="248.1" r="10"/>
<g>
	<g>
		<path fill="#231815" d="M13.4,251l1.8-1.8c1.4-1.4,2.4-2.4,2.4-3.2c0-1.1-0.6-1.6-1.7-1.6c-1.1,0-1.7,0.9-1.7,1.9h-0.7
			c0-1.5,1-2.4,2.5-2.4c1.3,0,2.3,0.7,2.3,2.1c0,0.9-0.6,1.7-2.1,3.1l-2.3,2.2h3.8v-1.2h0.6v1.8h-5V251z"/>
	</g>
	<g>
		<path fill="#FFDC00" d="M13.4,251l1.8-1.8c1.4-1.4,2.4-2.4,2.4-3.2c0-1.1-0.6-1.6-1.7-1.6c-1.1,0-1.7,0.9-1.7,1.9h-0.7
			c0-1.5,1-2.4,2.5-2.4c1.3,0,2.3,0.7,2.3,2.1c0,0.9-0.6,1.7-2.1,3.1l-2.3,2.2h3.8v-1.2h0.6v1.8h-5V251z"/>
	</g>
</g>
<line fill="none" stroke="#FFDC00" stroke-miterlimit="10" x1="0" y1="303.1" x2="320" y2="303.1"/>
<circle stroke="#FFDC00" stroke-miterlimit="10" cx="16" cy="303.1" r="10"/>
<g>
	<g>
		<path fill="#231815" d="M15.6,302.6c1.1,0,2.1-0.4,2.1-1.6c0-1.1-0.7-1.6-1.7-1.6s-1.6,0.7-1.7,1.7h-0.7c0-1.4,1.1-2.2,2.4-2.2
			c1.4,0,2.3,0.8,2.3,2.2c0,1-0.8,1.6-1.7,1.8v0c1.1,0.2,1.7,0.8,1.7,2c0,1.4-1.2,2.1-2.5,2.1c-1.4,0-2.4-0.8-2.4-2.3h0.7
			c0,1.2,0.7,1.8,1.8,1.8c0.9,0,1.7-0.7,1.7-1.6c0-1.3-1-1.7-2.1-1.7V302.6z"/>
	</g>
	<g>
		<path fill="#FFDC00" d="M15.6,302.6c1.1,0,2.1-0.4,2.1-1.6c0-1.1-0.7-1.6-1.7-1.6s-1.6,0.7-1.7,1.7h-0.7c0-1.4,1.1-2.2,2.4-2.2
			c1.4,0,2.3,0.8,2.3,2.2c0,1-0.8,1.6-1.7,1.8v0c1.1,0.2,1.7,0.8,1.7,2c0,1.4-1.2,2.1-2.5,2.1c-1.4,0-2.4-0.8-2.4-2.3h0.7
			c0,1.2,0.7,1.8,1.8,1.8c0.9,0,1.7-0.7,1.7-1.6c0-1.3-1-1.7-2.1-1.7V302.6z"/>
	</g>
</g>
<line fill="none" stroke="#FFDC00" stroke-miterlimit="10" x1="0" y1="358.1" x2="320" y2="358.1"/>
<circle stroke="#FFDC00" stroke-miterlimit="10" cx="16" cy="358.1" r="10"/>
<g>
	<g>
		<path fill="#231815" d="M15.8,361.3H17v-1.7h-3.7v-0.8l3.5-4.8h0.9v5.1h1.1v0.5h-1.1v1.7h1.1v0.5h-2.9V361.3z M17,359.1v-4.3h0
			l-3.2,4.3H17z"/>
	</g>
	<g>
		<path fill="#FFDC00" d="M15.8,361.3H17v-1.7h-3.7v-0.8l3.5-4.8h0.9v5.1h1.1v0.5h-1.1v1.7h1.1v0.5h-2.9V361.3z M17,359.1v-4.3h0
			l-3.2,4.3H17z"/>
	</g>
</g>
<line fill="none" stroke="#FFDC00" stroke-miterlimit="10" x1="0" y1="413.1" x2="320" y2="413.1"/>
<circle stroke="#FFDC00" stroke-miterlimit="10" cx="16" cy="413.1" r="10"/>
<g>
	<g>
		<path fill="#231815" d="M18.3,409.5h-3.7l-0.2,3.3l0,0c0.3-0.6,1.1-1,1.8-1c1.6,0,2.4,1.1,2.4,2.5c0,1.5-1.1,2.6-2.5,2.6
			c-1.3,0-2.4-0.8-2.4-2.2h0.7c0,1,0.7,1.6,1.7,1.6c1.2,0,1.9-1,1.9-2c0-1.2-0.6-2-1.8-2c-0.8,0-1.5,0.4-1.7,1.2h-0.7l0.1-4.6h4.4
			V409.5z"/>
	</g>
	<g>
		<path fill="#FFDC00" d="M18.3,409.5h-3.7l-0.2,3.3l0,0c0.3-0.6,1.1-1,1.8-1c1.6,0,2.4,1.1,2.4,2.5c0,1.5-1.1,2.6-2.5,2.6
			c-1.3,0-2.4-0.8-2.4-2.2h0.7c0,1,0.7,1.6,1.7,1.6c1.2,0,1.9-1,1.9-2c0-1.2-0.6-2-1.8-2c-0.8,0-1.5,0.4-1.7,1.2h-0.7l0.1-4.6h4.4
			V409.5z"/>
	</g>
</g>
<linearGradient id="SVGID_1_" gradientUnits="userSpaceOnUse" x1="76.5" y1="164" x2="76.5" y2="112">
	<stop  offset="0" style="stop-color:#000000"/>
	<stop  offset="7.380247e-03" style="stop-color:#090800"/>
	<stop  offset="4.767627e-02" style="stop-color:#372F00"/>
	<stop  offset="9.308982e-02" style="stop-color:#625500"/>
	<stop  offset="0.1419" style="stop-color:#887500"/>
	<stop  offset="0.195" style="stop-color:#A89100"/>
	<stop  offset="0.2537" style="stop-color:#C4A900"/>
	<stop  offset="0.32" style="stop-color:#DABC00"/>
	<stop  offset="0.3974" style="stop-color:#EBCA00"/>
	<stop  offset="0.4931" style="stop-color:#F6D500"/>
	<stop  offset="0.6274" style="stop-color:#FDDA00"/>
	<stop  offset="1" style="stop-color:#FFDC00"/>
</linearGradient>
<rect x="31" y="112" fill="url(#SVGID_1_)" width="91" height="52"/>
<linearGradient id="SVGID_2_" gradientUnits="userSpaceOnUse" x1="168.5" y1="136.5" x2="168.5" y2="84.5">
	<stop  offset="0" style="stop-color:#000000"/>
	<stop  offset="7.346549e-03" style="stop-color:#090500"/>
	<stop  offset="4.745857e-02" style="stop-color:#372000"/>
	<stop  offset="9.266477e-02" style="stop-color:#623A00"/>
	<stop  offset="0.1413" style="stop-color:#885000"/>
	<stop  offset="0.1941" style="stop-color:#A86300"/>
	<stop  offset="0.2526" style="stop-color:#C47300"/>
	<stop  offset="0.3185" style="stop-color:#DA8000"/>
	<stop  offset="0.3956" style="stop-color:#EB8A00"/>
	<stop  offset="0.4909" style="stop-color:#F69100"/>
	<stop  offset="0.6245" style="stop-color:#FD9500"/>
	<stop  offset="0.9954" style="stop-color:#FF9600"/>
</linearGradient>
<rect x="123" y="84.5" fill="url(#SVGID_2_)" width="91" height="52"/>
<linearGradient id="SVGID_3_" gradientUnits="userSpaceOnUse" x1="260.5" y1="136.5" x2="260.5" y2="84.5">
	<stop  offset="0" style="stop-color:#000000"/>
	<stop  offset="7.380247e-03" style="stop-color:#090800"/>
	<stop  offset="4.767627e-02" style="stop-color:#372F00"/>
	<stop  offset="9.308982e-02" style="stop-color:#625500"/>
	<stop  offset="0.1419" style="stop-color:#887500"/>
	<stop  offset="0.195" style="stop-color:#A89100"/>
	<stop  offset="0.2537" style="stop-color:#C4A900"/>
	<stop  offset="0.32" style="stop-color:#DABC00"/>
	<stop  offset="0.3974" style="stop-color:#EBCA00"/>
	<stop  offset="0.4931" style="stop-color:#F6D500"/>
	<stop  offset="0.6274" style="stop-color:#FDDA00"/>
	<stop  offset="1" style="stop-color:#FFDC00"/>
</linearGradient>
<rect x="215" y="84.5" fill="url(#SVGID_3_)" width="91" height="52"/>
<linearGradient id="SVGID_4_" gradientUnits="userSpaceOnUse" x1="76.5" y1="219" x2="76.5" y2="167">
	<stop  offset="0" style="stop-color:#000000"/>
	<stop  offset="7.380247e-03" style="stop-color:#090800"/>
	<stop  offset="4.767627e-02" style="stop-color:#372F00"/>
	<stop  offset="9.308982e-02" style="stop-color:#625500"/>
	<stop  offset="0.1419" style="stop-color:#887500"/>
	<stop  offset="0.195" style="stop-color:#A89100"/>
	<stop  offset="0.2537" style="stop-color:#C4A900"/>
	<stop  offset="0.32" style="stop-color:#DABC00"/>
	<stop  offset="0.3974" style="stop-color:#EBCA00"/>
	<stop  offset="0.4931" style="stop-color:#F6D500"/>
	<stop  offset="0.6274" style="stop-color:#FDDA00"/>
	<stop  offset="1" style="stop-color:#FFDC00"/>
</linearGradient>
<rect x="31" y="167" fill="url(#SVGID_4_)" width="91" height="52"/>
<linearGradient id="SVGID_5_" gradientUnits="userSpaceOnUse" x1="168.5" y1="191.5" x2="168.5" y2="139.5">
	<stop  offset="0" style="stop-color:#000000"/>
	<stop  offset="7.346549e-03" style="stop-color:#090500"/>
	<stop  offset="4.745857e-02" style="stop-color:#372000"/>
	<stop  offset="9.266477e-02" style="stop-color:#623A00"/>
	<stop  offset="0.1413" style="stop-color:#885000"/>
	<stop  offset="0.1941" style="stop-color:#A86300"/>
	<stop  offset="0.2526" style="stop-color:#C47300"/>
	<stop  offset="0.3185" style="stop-color:#DA8000"/>
	<stop  offset="0.3956" style="stop-color:#EB8A00"/>
	<stop  offset="0.4909" style="stop-color:#F69100"/>
	<stop  offset="0.6245" style="stop-color:#FD9500"/>
	<stop  offset="0.9954" style="stop-color:#FF9600"/>
</linearGradient>
<rect x="123" y="139.5" fill="url(#SVGID_5_)" width="91" height="52"/>
<linearGradient id="SVGID_6_" gradientUnits="userSpaceOnUse" x1="260.5" y1="191.5" x2="260.5" y2="139.5">
	<stop  offset="0" style="stop-color:#000000"/>
	<stop  offset="7.380247e-03" style="stop-color:#090800"/>
	<stop  offset="4.767627e-02" style="stop-color:#372F00"/>
	<stop  offset="9.308982e-02" style="stop-color:#625500"/>
	<stop  offset="0.1419" style="stop-color:#887500"/>
	<stop  offset="0.195" style="stop-color:#A89100"/>
	<stop  offset="0.2537" style="stop-color:#C4A900"/>
	<stop  offset="0.32" style="stop-color:#DABC00"/>
	<stop  offset="0.3974" style="stop-color:#EBCA00"/>
	<stop  offset="0.4931" style="stop-color:#F6D500"/>
	<stop  offset="0.6274" style="stop-color:#FDDA00"/>
	<stop  offset="1" style="stop-color:#FFDC00"/>
</linearGradient>
<rect x="215" y="139.5" fill="url(#SVGID_6_)" width="91" height="52"/>
<linearGradient id="SVGID_7_" gradientUnits="userSpaceOnUse" x1="76.5" y1="274" x2="76.5" y2="222">
	<stop  offset="0" style="stop-color:#000000"/>
	<stop  offset="7.380247e-03" style="stop-color:#090800"/>
	<stop  offset="4.767627e-02" style="stop-color:#372F00"/>
	<stop  offset="9.308982e-02" style="stop-color:#625500"/>
	<stop  offset="0.1419" style="stop-color:#887500"/>
	<stop  offset="0.195" style="stop-color:#A89100"/>
	<stop  offset="0.2537" style="stop-color:#C4A900"/>
	<stop  offset="0.32" style="stop-color:#DABC00"/>
	<stop  offset="0.3974" style="stop-color:#EBCA00"/>
	<stop  offset="0.4931" style="stop-color:#F6D500"/>
	<stop  offset="0.6274" style="stop-color:#FDDA00"/>
	<stop  offset="1" style="stop-color:#FFDC00"/>
</linearGradient>
<rect x="31" y="222" fill="url(#SVGID_7_)" width="91" height="52"/>
<linearGradient id="SVGID_8_" gradientUnits="userSpaceOnUse" x1="168.5" y1="246.5" x2="168.5" y2="194.5">
	<stop  offset="0" style="stop-color:#000000"/>
	<stop  offset="7.346549e-03" style="stop-color:#090500"/>
	<stop  offset="4.745857e-02" style="stop-color:#372000"/>
	<stop  offset="9.266477e-02" style="stop-color:#623A00"/>
	<stop  offset="0.1413" style="stop-color:#885000"/>
	<stop  offset="0.1941" style="stop-color:#A86300"/>
	<stop  offset="0.2526" style="stop-color:#C47300"/>
	<stop  offset="0.3185" style="stop-color:#DA8000"/>
	<stop  offset="0.3956" style="stop-color:#EB8A00"/>
	<stop  offset="0.4909" style="stop-color:#F69100"/>
	<stop  offset="0.6245" style="stop-color:#FD9500"/>
	<stop  offset="0.9954" style="stop-color:#FF9600"/>
</linearGradient>
<rect x="123" y="194.5" fill="url(#SVGID_8_)" width="91" height="52"/>
<linearGradient id="SVGID_9_" gradientUnits="userSpaceOnUse" x1="260.5" y1="246.5" x2="260.5" y2="194.5">
	<stop  offset="0" style="stop-color:#000000"/>
	<stop  offset="7.380247e-03" style="stop-color:#090800"/>
	<stop  offset="4.767627e-02" style="stop-color:#372F00"/>
	<stop  offset="9.308982e-02" style="stop-color:#625500"/>
	<stop  offset="0.1419" style="stop-color:#887500"/>
	<stop  offset="0.195" style="stop-color:#A89100"/>
	<stop  offset="0.2537" style="stop-color:#C4A900"/>
	<stop  offset="0.32" style="stop-color:#DABC00"/>
	<stop  offset="0.3974" style="stop-color:#EBCA00"/>
	<stop  offset="0.4931" style="stop-color:#F6D500"/>
	<stop  offset="0.6274" style="stop-color:#FDDA00"/>
	<stop  offset="1" style="stop-color:#FFDC00"/>
</linearGradient>
<rect x="215" y="194.5" fill="url(#SVGID_9_)" width="91" height="52"/>
<linearGradient id="SVGID_10_" gradientUnits="userSpaceOnUse" x1="76.5" y1="329" x2="76.5" y2="277">
	<stop  offset="0" style="stop-color:#000000"/>
	<stop  offset="7.380247e-03" style="stop-color:#090800"/>
	<stop  offset="4.767627e-02" style="stop-color:#372F00"/>
	<stop  offset="9.308982e-02" style="stop-color:#625500"/>
	<stop  offset="0.1419" style="stop-color:#887500"/>
	<stop  offset="0.195" style="stop-color:#A89100"/>
	<stop  offset="0.2537" style="stop-color:#C4A900"/>
	<stop  offset="0.32" style="stop-color:#DABC00"/>
	<stop  offset="0.3974" style="stop-color:#EBCA00"/>
	<stop  offset="0.4931" style="stop-color:#F6D500"/>
	<stop  offset="0.6274" style="stop-color:#FDDA00"/>
	<stop  offset="1" style="stop-color:#FFDC00"/>
</linearGradient>
<rect x="31" y="277" fill="url(#SVGID_10_)" width="91" height="52"/>
<linearGradient id="SVGID_11_" gradientUnits="userSpaceOnUse" x1="168.5" y1="301.5" x2="168.5" y2="249.5">
	<stop  offset="0" style="stop-color:#000000"/>
	<stop  offset="7.346549e-03" style="stop-color:#090500"/>
	<stop  offset="4.745857e-02" style="stop-color:#372000"/>
	<stop  offset="9.266477e-02" style="stop-color:#623A00"/>
	<stop  offset="0.1413" style="stop-color:#885000"/>
	<stop  offset="0.1941" style="stop-color:#A86300"/>
	<stop  offset="0.2526" style="stop-color:#C47300"/>
	<stop  offset="0.3185" style="stop-color:#DA8000"/>
	<stop  offset="0.3956" style="stop-color:#EB8A00"/>
	<stop  offset="0.4909" style="stop-color:#F69100"/>
	<stop  offset="0.6245" style="stop-color:#FD9500"/>
	<stop  offset="0.9954" style="stop-color:#FF9600"/>
</linearGradient>
<rect x="123" y="249.5" fill="url(#SVGID_11_)" width="91" height="52"/>
<linearGradient id="SVGID_12_" gradientUnits="userSpaceOnUse" x1="260.5" y1="301.5" x2="260.5" y2="249.5">
	<stop  offset="0" style="stop-color:#000000"/>
	<stop  offset="7.380247e-03" style="stop-color:#090800"/>
	<stop  offset="4.767627e-02" style="stop-color:#372F00"/>
	<stop  offset="9.308982e-02" style="stop-color:#625500"/>
	<stop  offset="0.1419" style="stop-color:#887500"/>
	<stop  offset="0.195" style="stop-color:#A89100"/>
	<stop  offset="0.2537" style="stop-color:#C4A900"/>
	<stop  offset="0.32" style="stop-color:#DABC00"/>
	<stop  offset="0.3974" style="stop-color:#EBCA00"/>
	<stop  offset="0.4931" style="stop-color:#F6D500"/>
	<stop  offset="0.6274" style="stop-color:#FDDA00"/>
	<stop  offset="1" style="stop-color:#FFDC00"/>
</linearGradient>
<rect x="215" y="249.5" fill="url(#SVGID_12_)" width="91" height="52"/>
<linearGradient id="SVGID_13_" gradientUnits="userSpaceOnUse" x1="76.5" y1="384" x2="76.5" y2="332">
	<stop  offset="0" style="stop-color:#000000"/>
	<stop  offset="7.380247e-03" style="stop-color:#090800"/>
	<stop  offset="4.767627e-02" style="stop-color:#372F00"/>
	<stop  offset="9.308982e-02" style="stop-color:#625500"/>
	<stop  offset="0.1419" style="stop-color:#887500"/>
	<stop  offset="0.195" style="stop-color:#A89100"/>
	<stop  offset="0.2537" style="stop-color:#C4A900"/>
	<stop  offset="0.32" style="stop-color:#DABC00"/>
	<stop  offset="0.3974" style="stop-color:#EBCA00"/>
	<stop  offset="0.4931" style="stop-color:#F6D500"/>
	<stop  offset="0.6274" style="stop-color:#FDDA00"/>
	<stop  offset="1" style="stop-color:#FFDC00"/>
</linearGradient>
<rect x="31" y="332" fill="url(#SVGID_13_)" width="91" height="52"/>
<linearGradient id="SVGID_14_" gradientUnits="userSpaceOnUse" x1="168.5" y1="356.5" x2="168.5" y2="304.5">
	<stop  offset="0" style="stop-color:#000000"/>
	<stop  offset="7.346549e-03" style="stop-color:#090500"/>
	<stop  offset="4.745857e-02" style="stop-color:#372000"/>
	<stop  offset="9.266477e-02" style="stop-color:#623A00"/>
	<stop  offset="0.1413" style="stop-color:#885000"/>
	<stop  offset="0.1941" style="stop-color:#A86300"/>
	<stop  offset="0.2526" style="stop-color:#C47300"/>
	<stop  offset="0.3185" style="stop-color:#DA8000"/>
	<stop  offset="0.3956" style="stop-color:#EB8A00"/>
	<stop  offset="0.4909" style="stop-color:#F69100"/>
	<stop  offset="0.6245" style="stop-color:#FD9500"/>
	<stop  offset="0.9954" style="stop-color:#FF9600"/>
</linearGradient>
<rect x="123" y="304.5" fill="url(#SVGID_14_)" width="91" height="52"/>
<linearGradient id="SVGID_15_" gradientUnits="userSpaceOnUse" x1="260.5" y1="356.5" x2="260.5" y2="304.5">
	<stop  offset="0" style="stop-color:#000000"/>
	<stop  offset="7.380247e-03" style="stop-color:#090800"/>
	<stop  offset="4.767627e-02" style="stop-color:#372F00"/>
	<stop  offset="9.308982e-02" style="stop-color:#625500"/>
	<stop  offset="0.1419" style="stop-color:#887500"/>
	<stop  offset="0.195" style="stop-color:#A89100"/>
	<stop  offset="0.2537" style="stop-color:#C4A900"/>
	<stop  offset="0.32" style="stop-color:#DABC00"/>
	<stop  offset="0.3974" style="stop-color:#EBCA00"/>
	<stop  offset="0.4931" style="stop-color:#F6D500"/>
	<stop  offset="0.6274" style="stop-color:#FDDA00"/>
	<stop  offset="1" style="stop-color:#FFDC00"/>
</linearGradient>
<rect x="215" y="304.5" fill="url(#SVGID_15_)" width="91" height="52"/>
<linearGradient id="SVGID_16_" gradientUnits="userSpaceOnUse" x1="76.5" y1="439" x2="76.5" y2="387">
	<stop  offset="0" style="stop-color:#000000"/>
	<stop  offset="7.380247e-03" style="stop-color:#090800"/>
	<stop  offset="4.767627e-02" style="stop-color:#372F00"/>
	<stop  offset="9.308982e-02" style="stop-color:#625500"/>
	<stop  offset="0.1419" style="stop-color:#887500"/>
	<stop  offset="0.195" style="stop-color:#A89100"/>
	<stop  offset="0.2537" style="stop-color:#C4A900"/>
	<stop  offset="0.32" style="stop-color:#DABC00"/>
	<stop  offset="0.3974" style="stop-color:#EBCA00"/>
	<stop  offset="0.4931" style="stop-color:#F6D500"/>
	<stop  offset="0.6274" style="stop-color:#FDDA00"/>
	<stop  offset="1" style="stop-color:#FFDC00"/>
</linearGradient>
<rect x="31" y="387" fill="url(#SVGID_16_)" width="91" height="52"/>
<linearGradient id="SVGID_17_" gradientUnits="userSpaceOnUse" x1="168.5" y1="411.5" x2="168.5" y2="359.5">
	<stop  offset="0" style="stop-color:#000000"/>
	<stop  offset="7.346549e-03" style="stop-color:#090500"/>
	<stop  offset="4.745857e-02" style="stop-color:#372000"/>
	<stop  offset="9.266477e-02" style="stop-color:#623A00"/>
	<stop  offset="0.1413" style="stop-color:#885000"/>
	<stop  offset="0.1941" style="stop-color:#A86300"/>
	<stop  offset="0.2526" style="stop-color:#C47300"/>
	<stop  offset="0.3185" style="stop-color:#DA8000"/>
	<stop  offset="0.3956" style="stop-color:#EB8A00"/>
	<stop  offset="0.4909" style="stop-color:#F69100"/>
	<stop  offset="0.6245" style="stop-color:#FD9500"/>
	<stop  offset="0.9954" style="stop-color:#FF9600"/>
</linearGradient>
<rect x="123" y="359.5" fill="url(#SVGID_17_)" width="91" height="52"/>
<linearGradient id="SVGID_18_" gradientUnits="userSpaceOnUse" x1="260.5" y1="411.5" x2="260.5" y2="359.5">
	<stop  offset="0" style="stop-color:#000000"/>
	<stop  offset="7.380247e-03" style="stop-color:#090800"/>
	<stop  offset="4.767627e-02" style="stop-color:#372F00"/>
	<stop  offset="9.308982e-02" style="stop-color:#625500"/>
	<stop  offset="0.1419" style="stop-color:#887500"/>
	<stop  offset="0.195" style="stop-color:#A89100"/>
	<stop  offset="0.2537" style="stop-color:#C4A900"/>
	<stop  offset="0.32" style="stop-color:#DABC00"/>
	<stop  offset="0.3974" style="stop-color:#EBCA00"/>
	<stop  offset="0.4931" style="stop-color:#F6D500"/>
	<stop  offset="0.6274" style="stop-color:#FDDA00"/>
	<stop  offset="1" style="stop-color:#FFDC00"/>
</linearGradient>
<rect x="215" y="359.5" fill="url(#SVGID_18_)" width="91" height="52"/>
<g>
	<g>
		<g>
			<path d="M34.3,142.5v-13.7h2.6v5.5h3.7v-5.5h2.6v13.7h-2.6v-5.9h-3.7v5.9H34.3z"/>
			<path d="M43.8,142.5l3.4-13.7h3.4l3.3,13.7h-2.5l-0.7-2.9H47l-0.7,2.9H43.8z M47.5,137.3h2.6l-1.3-5.5h0L47.5,137.3z"/>
			<path d="M54.6,142.5v-13.7h2.6v11.4h4.2v2.3H54.6z"/>
			<path d="M64.3,128.8v9.6c0,1.3,0.6,2,1.8,2c1.3,0,1.9-0.7,1.9-2v-9.6h2.6v9.6c0,3-1.8,4.3-4.5,4.3c-2.7,0-4.5-1.3-4.5-4.3v-9.6
				H64.3z"/>
		</g>
	</g>
	<g>
		<g>
			<path d="M34.4,125.1v-1.3c3.2-3,3.7-3.6,3.7-4.4c0-0.6-0.4-1.1-1.1-1.1c-0.7,0-1.1,0.5-1.1,1v0.3h-1.5v-0.4
				c0-1.2,0.9-2.2,2.5-2.2c1.6,0,2.6,0.8,2.6,2.3c0,1.8-2.1,3.3-3.3,4.5h3.2v1.3H34.4z"/>
			<path d="M41.4,122.8c0,0.8,0.4,1.2,1.2,1.2c0.7,0,1.2-0.5,1.2-1.2c0-0.9-0.5-1.2-1.6-1.2v-1.3c1,0,1.4-0.3,1.4-1c0-0.6-0.4-1-1-1
				c-0.5,0-0.9,0.4-1,0.9h-1.5c0-1.5,1.1-2.2,2.4-2.2c1.4,0,2.5,0.7,2.5,2.2c0,0.7-0.3,1.4-1,1.7c0.8,0.3,1.1,1,1.1,1.9
				c0,1.6-1.2,2.4-2.6,2.4c-1.8,0-2.7-0.9-2.7-2.4H41.4z"/>
			<path d="M46.2,120.3v-1.6h1.6v1.6H46.2z M46.2,123.6V122h1.6v1.6H46.2z"/>
			<path d="M50,122.8c0,0.8,0.4,1.2,1.2,1.2c0.7,0,1.2-0.5,1.2-1.2c0-0.9-0.5-1.2-1.6-1.2v-1.3c1,0,1.4-0.3,1.4-1c0-0.6-0.4-1-1-1
				c-0.5,0-0.9,0.4-1,0.9h-1.5c0-1.5,1.1-2.2,2.4-2.2c1.4,0,2.5,0.7,2.5,2.2c0,0.7-0.3,1.4-1,1.7c0.8,0.3,1.1,1,1.1,1.9
				c0,1.6-1.2,2.4-2.6,2.4c-1.8,0-2.7-0.9-2.7-2.4H50z"/>
			<path d="M54.6,119.8c0-1.7,0.9-2.8,2.7-2.8c1.7,0,2.7,1.1,2.7,2.8v2.7c0,1.7-0.9,2.8-2.7,2.8c-1.7,0-2.7-1.1-2.7-2.8V119.8z
				 M56,122.3c0,1.3,0.4,1.7,1.2,1.7c0.8,0,1.2-0.4,1.2-1.7v-2.3c0-1.3-0.4-1.7-1.2-1.7c-0.8,0-1.2,0.4-1.2,1.7V122.3z"/>
			<path d="M60.8,121.7v-1.2h2.7v1.2H60.8z"/>
		</g>
	</g>
</g>
<g>
	<g>
		<g>
			<path d="M132.8,113.9c-0.7,0.8-1.5,1.3-2.5,1.3c-2.5,0-4.3-1.2-4.3-4.6v-4.9c0-3.4,1.8-4.6,4.3-4.6c2.7,0,4.1,1.5,4.2,4.7h-2.6
				c0-1.8-0.6-2.3-1.6-2.3c-1,0-1.7,0.4-1.7,1.9v5.6c0,1.5,0.7,1.9,1.7,1.9c1,0,1.6-0.7,1.6-1.9v-0.8h-1.8V108h4.5v7h-1.4
				L132.8,113.9z"/>
			<path d="M135,115l3.4-13.7h3.4l3.3,13.7h-2.5l-0.7-2.9h-3.6l-0.7,2.9H135z M138.7,109.8h2.6l-1.3-5.5h0L138.7,109.8z"/>
			<path d="M145.6,115v-13.7h2.6v11.4h4.2v2.3H145.6z"/>
			<path d="M153.4,115v-13.7h2.6v11.4h4.2v2.3H153.4z"/>
			<path d="M160.3,105.7c0-3.4,1.8-4.6,4.3-4.6c2.5,0,4.3,1.2,4.3,4.6v4.9c0,3.4-1.8,4.6-4.3,4.6c-2.5,0-4.3-1.2-4.3-4.6V105.7z
				 M162.9,111c0,1.5,0.7,1.9,1.7,1.9c1,0,1.7-0.4,1.7-1.9v-5.6c0-1.5-0.7-1.9-1.7-1.9c-1,0-1.7,0.4-1.7,1.9V111z"/>
		</g>
	</g>
	<g>
		<g>
			<path d="M126.4,97.6v-1.3c3.2-3,3.7-3.6,3.7-4.4c0-0.6-0.4-1.1-1.1-1.1c-0.7,0-1.1,0.5-1.1,1v0.3h-1.5v-0.4
				c0-1.2,0.9-2.2,2.5-2.2c1.6,0,2.6,0.8,2.6,2.3c0,1.8-2.1,3.3-3.3,4.5h3.2v1.3H126.4z"/>
			<path d="M133.4,95.3c0,0.8,0.4,1.2,1.2,1.2c0.7,0,1.2-0.5,1.2-1.2c0-0.9-0.5-1.2-1.6-1.2v-1.3c1,0,1.4-0.3,1.4-1c0-0.6-0.4-1-1-1
				c-0.5,0-0.9,0.4-1,0.9h-1.5c0-1.5,1.1-2.2,2.4-2.2c1.4,0,2.5,0.7,2.5,2.2c0,0.7-0.3,1.4-1,1.7c0.8,0.3,1.1,1,1.1,1.9
				c0,1.6-1.2,2.4-2.6,2.4c-1.8,0-2.7-0.9-2.7-2.4H133.4z"/>
			<path d="M138.3,92.8v-1.6h1.6v1.6H138.3z M138.3,96.1v-1.6h1.6v1.6H138.3z"/>
			<path d="M140.9,92.3c0-1.7,0.9-2.8,2.7-2.8c1.7,0,2.7,1.1,2.7,2.8v2.7c0,1.7-0.9,2.8-2.7,2.8c-1.7,0-2.7-1.1-2.7-2.8V92.3z
				 M142.4,94.8c0,1.3,0.4,1.7,1.2,1.7c0.8,0,1.2-0.4,1.2-1.7v-2.3c0-1.3-0.4-1.7-1.2-1.7c-0.8,0-1.2,0.4-1.2,1.7V94.8z"/>
			<path d="M146.9,92.3c0-1.7,0.9-2.8,2.7-2.8c1.7,0,2.7,1.1,2.7,2.8v2.7c0,1.7-0.9,2.8-2.7,2.8c-1.7,0-2.7-1.1-2.7-2.8V92.3z
				 M148.4,94.8c0,1.3,0.4,1.7,1.2,1.7c0.8,0,1.2-0.4,1.2-1.7v-2.3c0-1.3-0.4-1.7-1.2-1.7c-0.8,0-1.2,0.4-1.2,1.7V94.8z"/>
			<path d="M153,94.2V93h2.7v1.2H153z"/>
		</g>
	</g>
</g>
<g>
	<g>
		<g>
			<path d="M217.2,115l3.4-13.7h3.4l3.3,13.7h-2.5l-0.7-2.9h-3.6l-0.7,2.9H217.2z M220.9,109.8h2.6l-1.3-5.5h0L220.9,109.8z"/>
			<path d="M234,115l-2.3-5.6h-1.3v5.6h-2.6v-13.7h3.8c3.2,0,4.7,1.5,4.7,4.1c0,1.7-0.6,2.9-2.1,3.5l2.6,6.1H234z M230.5,107.3h1.3
				c1.2,0,1.9-0.6,1.9-1.9c0-1.3-0.7-1.9-1.9-1.9h-1.3V107.3z"/>
			<path d="M239.6,101.3v9.6c0,1.3,0.6,2,1.8,2c1.3,0,1.9-0.7,1.9-2v-9.6h2.6v9.6c0,3-1.8,4.3-4.5,4.3c-2.7,0-4.5-1.3-4.5-4.3v-9.6
				H239.6z"/>
			<path d="M247.1,115v-13.7h3.7l2.4,9h0l2.4-9h3.7V115H257v-10.8h0l-2.8,10.8h-2l-2.8-10.8h0V115H247.1z"/>
			<path d="M259.8,115l3.4-13.7h3.4l3.3,13.7h-2.5l-0.7-2.9H263l-0.7,2.9H259.8z M263.5,109.8h2.6l-1.3-5.5h0L263.5,109.8z"/>
			<path d="M270.3,115v-13.7h2.6v5.7h0l3.4-5.7h2.9l-3.5,5.5l3.9,8.2h-2.9l-2.7-5.8l-1,1.6v4.2H270.3z"/>
			<path d="M278.7,115l3.4-13.7h3.4l3.3,13.7h-2.5l-0.7-2.9H282l-0.7,2.9H278.7z M282.5,109.8h2.6l-1.3-5.5h0L282.5,109.8z"/>
			<path d="M289.2,115v-13.7h2.9l3.6,8.1h0v-8.1h2.4V115h-2.5l-4-8.9h0v8.9H289.2z"/>
		</g>
	</g>
	<g>
		<g>
			<path d="M218.4,97.6v-1.3c3.2-3,3.7-3.6,3.7-4.4c0-0.6-0.4-1.1-1.1-1.1c-0.7,0-1.1,0.5-1.1,1v0.3h-1.5v-0.4
				c0-1.2,0.9-2.2,2.5-2.2c1.6,0,2.6,0.8,2.6,2.3c0,1.8-2.1,3.3-3.3,4.5h3.2v1.3H218.4z"/>
			<path d="M225.4,95.3c0,0.8,0.4,1.2,1.2,1.2c0.7,0,1.2-0.5,1.2-1.2c0-0.9-0.5-1.2-1.6-1.2v-1.3c1,0,1.4-0.3,1.4-1c0-0.6-0.4-1-1-1
				c-0.5,0-0.9,0.4-1,0.9h-1.5c0-1.5,1.1-2.2,2.4-2.2c1.4,0,2.5,0.7,2.5,2.2c0,0.7-0.3,1.4-1,1.7c0.8,0.3,1.1,1,1.1,1.9
				c0,1.6-1.2,2.4-2.6,2.4c-1.8,0-2.7-0.9-2.7-2.4H225.4z"/>
			<path d="M230.3,92.8v-1.6h1.6v1.6H230.3z M230.3,96.1v-1.6h1.6v1.6H230.3z"/>
			<path d="M232.9,92.3c0-1.7,0.9-2.8,2.7-2.8c1.7,0,2.7,1.1,2.7,2.8v2.7c0,1.7-0.9,2.8-2.7,2.8c-1.7,0-2.7-1.1-2.7-2.8V92.3z
				 M234.4,94.8c0,1.3,0.4,1.7,1.2,1.7c0.8,0,1.2-0.4,1.2-1.7v-2.3c0-1.3-0.4-1.7-1.2-1.7c-0.8,0-1.2,0.4-1.2,1.7V94.8z"/>
			<path d="M238.9,92.3c0-1.7,0.9-2.8,2.7-2.8c1.7,0,2.7,1.1,2.7,2.8v2.7c0,1.7-0.9,2.8-2.7,2.8c-1.7,0-2.7-1.1-2.7-2.8V92.3z
				 M240.4,94.8c0,1.3,0.4,1.7,1.2,1.7c0.8,0,1.2-0.4,1.2-1.7v-2.3c0-1.3-0.4-1.7-1.2-1.7c-0.8,0-1.2,0.4-1.2,1.7V94.8z"/>
			<path d="M245,94.2V93h2.7v1.2H245z"/>
		</g>
	</g>
</g>
<g>
	<g>
		<g>
			<path d="M34.4,197.5v-13.7H37v13.7H34.4z"/>
			<path d="M46.9,183.8v2.3h-3.1v11.4h-2.6v-11.4h-3.1v-2.3H46.9z"/>
			<path d="M56.7,183.8v2.3h-3.1v11.4H51v-11.4h-3.1v-2.3H56.7z"/>
			<path d="M57.5,197.5v-13.7h2.6v13.7H57.5z"/>
		</g>
	</g>
	<g>
		<g>
			<path d="M34.4,174.8c0-1.7,0.9-2.8,2.7-2.8c1.7,0,2.7,1.1,2.7,2.8v2.7c0,1.7-0.9,2.8-2.7,2.8c-1.7,0-2.7-1.1-2.7-2.8V174.8z
				 M35.8,177.3c0,1.3,0.4,1.7,1.2,1.7c0.8,0,1.2-0.4,1.2-1.7v-2.3c0-1.3-0.4-1.7-1.2-1.7c-0.8,0-1.2,0.4-1.2,1.7V177.3z"/>
			<path d="M40.6,174.8c0-1.7,0.9-2.8,2.7-2.8c1.7,0,2.7,1.1,2.7,2.8v2.7c0,1.7-0.9,2.8-2.7,2.8c-1.7,0-2.7-1.1-2.7-2.8V174.8z
				 M42.1,177.3c0,1.3,0.4,1.7,1.2,1.7c0.8,0,1.2-0.4,1.2-1.7v-2.3c0-1.3-0.4-1.7-1.2-1.7c-0.8,0-1.2,0.4-1.2,1.7V177.3z"/>
			<path d="M47,175.3v-1.6h1.6v1.6H47z M47,178.6V177h1.6v1.6H47z"/>
			<path d="M50.8,177.8c0,0.8,0.4,1.2,1.2,1.2c0.7,0,1.2-0.5,1.2-1.2c0-0.9-0.5-1.2-1.6-1.2v-1.3c1,0,1.4-0.3,1.4-1c0-0.6-0.4-1-1-1
				c-0.5,0-0.9,0.4-1,0.9h-1.5c0-1.5,1.1-2.2,2.4-2.2c1.4,0,2.5,0.7,2.5,2.2c0,0.7-0.3,1.4-1,1.7c0.8,0.3,1.1,1,1.1,1.9
				c0,1.6-1.2,2.4-2.6,2.4c-1.8,0-2.7-0.9-2.7-2.4H50.8z"/>
			<path d="M55.4,174.8c0-1.7,0.9-2.8,2.7-2.8c1.7,0,2.7,1.1,2.7,2.8v2.7c0,1.7-0.9,2.8-2.7,2.8c-1.7,0-2.7-1.1-2.7-2.8V174.8z
				 M56.8,177.3c0,1.3,0.4,1.7,1.2,1.7c0.8,0,1.2-0.4,1.2-1.7v-2.3c0-1.3-0.4-1.7-1.2-1.7c-0.8,0-1.2,0.4-1.2,1.7V177.3z"/>
			<path d="M61.4,176.7v-1.2h2.7v1.2H61.4z"/>
		</g>
	</g>
</g>
<g>
	<g>
		<g>
			<path d="M126.8,170v-13.7h3.7l2.4,9h0l2.4-9h3.7V170h-2.2v-10.8h0l-2.8,10.8h-2l-2.8-10.8h0V170H126.8z"/>
			<path d="M139.4,170l3.4-13.7h3.4l3.3,13.7H147l-0.7-2.9h-3.6l-0.7,2.9H139.4z M143.2,164.8h2.6l-1.3-5.5h0L143.2,164.8z"/>
			<path d="M150,170v-13.7h2.6v5.5h3.7v-5.5h2.6V170h-2.6v-5.9h-3.7v5.9H150z"/>
			<path d="M160.2,170v-13.7h2.6V170H160.2z"/>
			<path d="M170.4,170l-2.3-5.6h-1.3v5.6h-2.6v-13.7h3.8c3.2,0,4.7,1.5,4.7,4.1c0,1.7-0.6,2.9-2.1,3.5l2.6,6.1H170.4z M166.9,162.3
				h1.3c1.2,0,1.9-0.6,1.9-1.9c0-1.3-0.7-1.9-1.9-1.9h-1.3V162.3z"/>
			<path d="M176.2,156.3v9.6c0,1.3,0.6,2,1.8,2c1.3,0,1.9-0.7,1.9-2v-9.6h2.6v9.6c0,3-1.8,4.3-4.5,4.3c-2.7,0-4.5-1.3-4.5-4.3v-9.6
				H176.2z"/>
		</g>
	</g>
	<g>
		<g>
			<path d="M126.4,147.3c0-1.7,0.9-2.8,2.7-2.8c1.7,0,2.7,1.1,2.7,2.8v2.7c0,1.7-0.9,2.8-2.7,2.8c-1.7,0-2.7-1.1-2.7-2.8V147.3z
				 M127.8,149.8c0,1.3,0.4,1.7,1.2,1.7c0.8,0,1.2-0.4,1.2-1.7v-2.3c0-1.3-0.4-1.7-1.2-1.7c-0.8,0-1.2,0.4-1.2,1.7V149.8z"/>
			<path d="M132.4,147.3c0-1.7,0.9-2.8,2.7-2.8c1.7,0,2.7,1.1,2.7,2.8v2.7c0,1.7-0.9,2.8-2.7,2.8c-1.7,0-2.7-1.1-2.7-2.8V147.3z
				 M133.9,149.8c0,1.3,0.4,1.7,1.2,1.7c0.8,0,1.2-0.4,1.2-1.7v-2.3c0-1.3-0.4-1.7-1.2-1.7c-0.8,0-1.2,0.4-1.2,1.7V149.8z"/>
			<path d="M138.8,147.8v-1.6h1.6v1.6H138.8z M138.8,151.1v-1.6h1.6v1.6H138.8z"/>
			<path d="M141.4,147.3c0-1.7,0.9-2.8,2.7-2.8c1.7,0,2.7,1.1,2.7,2.8v2.7c0,1.7-0.9,2.8-2.7,2.8c-1.7,0-2.7-1.1-2.7-2.8V147.3z
				 M142.8,149.8c0,1.3,0.4,1.7,1.2,1.7c0.8,0,1.2-0.4,1.2-1.7v-2.3c0-1.3-0.4-1.7-1.2-1.7c-0.8,0-1.2,0.4-1.2,1.7V149.8z"/>
			<path d="M147.4,147.3c0-1.7,0.9-2.8,2.7-2.8c1.7,0,2.7,1.1,2.7,2.8v2.7c0,1.7-0.9,2.8-2.7,2.8c-1.7,0-2.7-1.1-2.7-2.8V147.3z
				 M148.8,149.8c0,1.3,0.4,1.7,1.2,1.7c0.8,0,1.2-0.4,1.2-1.7v-2.3c0-1.3-0.4-1.7-1.2-1.7c-0.8,0-1.2,0.4-1.2,1.7V149.8z"/>
			<path d="M153.4,149.2V148h2.7v1.2H153.4z"/>
		</g>
	</g>
</g>
<g>
	<g>
		<g>
			<path d="M220.4,166c0,1.5,0.7,1.9,1.7,1.9c1,0,1.7-0.4,1.7-1.9v-0.9h2.6v0.6c0,3.4-1.8,4.6-4.3,4.6s-4.3-1.2-4.3-4.6v-4.9
				c0-3.4,1.8-4.6,4.3-4.6s4.3,1.2,4.3,4.6v0h-2.6v-0.4c0-1.5-0.7-1.9-1.7-1.9c-1,0-1.7,0.4-1.7,1.9V166z"/>
			<path d="M227.5,170v-13.7h2.6v5.5h3.7v-5.5h2.6V170h-2.6v-5.9h-3.7v5.9H227.5z"/>
			<path d="M237,170l3.4-13.7h3.4l3.3,13.7h-2.5l-0.7-2.9h-3.6l-0.7,2.9H237z M240.7,164.8h2.6l-1.3-5.5h0L240.7,164.8z"/>
			<path d="M247.7,170v-13.7h3.7l2.4,9h0l2.4-9h3.7V170h-2.2v-10.8h0l-2.8,10.8h-2l-2.8-10.8h0V170H247.7z"/>
			<path d="M264.8,158.1h2.3v4h4v2.3h-4v4h-2.3v-4h-4v-2.3h4V158.1z"/>
			<path d="M272.1,170v-13.7h2.6V170H272.1z"/>
		</g>
	</g>
	<g>
		<g>
			<path d="M218.4,147.3c0-1.7,0.9-2.8,2.7-2.8c1.7,0,2.7,1.1,2.7,2.8v2.7c0,1.7-0.9,2.8-2.7,2.8c-1.7,0-2.7-1.1-2.7-2.8V147.3z
				 M219.8,149.8c0,1.3,0.4,1.7,1.2,1.7c0.8,0,1.2-0.4,1.2-1.7v-2.3c0-1.3-0.4-1.7-1.2-1.7c-0.8,0-1.2,0.4-1.2,1.7V149.8z"/>
			<path d="M224.4,147.3c0-1.7,0.9-2.8,2.7-2.8c1.7,0,2.7,1.1,2.7,2.8v2.7c0,1.7-0.9,2.8-2.7,2.8c-1.7,0-2.7-1.1-2.7-2.8V147.3z
				 M225.9,149.8c0,1.3,0.4,1.7,1.2,1.7c0.8,0,1.2-0.4,1.2-1.7v-2.3c0-1.3-0.4-1.7-1.2-1.7c-0.8,0-1.2,0.4-1.2,1.7V149.8z"/>
			<path d="M230.8,147.8v-1.6h1.6v1.6H230.8z M230.8,151.1v-1.6h1.6v1.6H230.8z"/>
			<path d="M233.4,147.3c0-1.7,0.9-2.8,2.7-2.8c1.7,0,2.7,1.1,2.7,2.8v2.7c0,1.7-0.9,2.8-2.7,2.8c-1.7,0-2.7-1.1-2.7-2.8V147.3z
				 M234.8,149.8c0,1.3,0.4,1.7,1.2,1.7c0.8,0,1.2-0.4,1.2-1.7v-2.3c0-1.3-0.4-1.7-1.2-1.7c-0.8,0-1.2,0.4-1.2,1.7V149.8z"/>
			<path d="M239.4,147.3c0-1.7,0.9-2.8,2.7-2.8c1.7,0,2.7,1.1,2.7,2.8v2.7c0,1.7-0.9,2.8-2.7,2.8c-1.7,0-2.7-1.1-2.7-2.8V147.3z
				 M240.8,149.8c0,1.3,0.4,1.7,1.2,1.7c0.8,0,1.2-0.4,1.2-1.7v-2.3c0-1.3-0.4-1.7-1.2-1.7c-0.8,0-1.2,0.4-1.2,1.7V149.8z"/>
			<path d="M245.4,149.2V148h2.7v1.2H245.4z"/>
		</g>
	</g>
</g>
<g>
	<g>
		<g>
			<path d="M40,242.6c-0.4-1.3-1-1.8-1.9-1.8c-0.9,0-1.4,0.6-1.4,1.5c0,2.1,5.9,2.2,5.9,6.5c0,2.4-1.6,3.9-4.4,3.9
				c-2.1,0-3.8-1.2-4.5-3.9l2.6-0.6c0.3,1.7,1.3,2.2,2,2.2c0.9,0,1.6-0.6,1.6-1.6c0-2.6-5.9-2.6-5.9-6.5c0-2.4,1.4-3.8,4.1-3.8
				c2.3,0,3.8,1.4,4.2,3.3L40,242.6z"/>
			<path d="M42.2,252.5l3.4-13.7H49l3.3,13.7h-2.5l-0.7-2.9h-3.6l-0.7,2.9H42.2z M46,247.3h2.6l-1.3-5.5h0L46,247.3z"/>
			<path d="M59.6,238.8v2.3h-3.1v11.4h-2.6v-11.4h-3.1v-2.3H59.6z"/>
			<path d="M59.9,243.2c0-3.4,1.8-4.6,4.3-4.6s4.3,1.2,4.3,4.6v4.9c0,3.4-1.8,4.6-4.3,4.6s-4.3-1.2-4.3-4.6V243.2z M62.5,248.5
				c0,1.5,0.7,1.9,1.7,1.9c1,0,1.7-0.4,1.7-1.9v-5.6c0-1.5-0.7-1.9-1.7-1.9c-1,0-1.7,0.4-1.7,1.9V248.5z"/>
			<path d="M75.2,242.6c-0.4-1.3-1-1.8-1.9-1.8c-0.9,0-1.4,0.6-1.4,1.5c0,2.1,5.9,2.2,5.9,6.5c0,2.4-1.6,3.9-4.4,3.9
				c-2.1,0-3.8-1.2-4.5-3.9l2.6-0.6c0.3,1.7,1.3,2.2,2,2.2c0.9,0,1.6-0.6,1.6-1.6c0-2.6-5.9-2.6-5.9-6.5c0-2.4,1.4-3.8,4.1-3.8
				c2.3,0,3.8,1.4,4.2,3.3L75.2,242.6z"/>
			<path d="M78.3,252.5v-13.7h2.6v5.5h3.7v-5.5h2.6v13.7h-2.6v-5.9h-3.7v5.9H78.3z"/>
			<path d="M88.4,252.5v-13.7h2.6v13.7H88.4z"/>
		</g>
	</g>
	<g>
		<g>
			<path d="M36.6,229h-1.2v-0.9c1.2-0.2,1.4-0.6,1.7-1.1H38v8.1h-1.4V229z"/>
			<path d="M39.9,230.3v-1.6h1.6v1.6H39.9z M39.9,233.6V232h1.6v1.6H39.9z"/>
			<path d="M43.7,232.8c0,0.8,0.4,1.2,1.2,1.2c0.7,0,1.2-0.5,1.2-1.2c0-0.9-0.5-1.2-1.6-1.2v-1.3c1,0,1.4-0.3,1.4-1c0-0.6-0.4-1-1-1
				c-0.5,0-0.9,0.4-1,0.9h-1.5c0-1.5,1.1-2.2,2.4-2.2c1.4,0,2.5,0.7,2.5,2.2c0,0.7-0.3,1.4-1,1.7c0.8,0.3,1.1,1,1.1,1.9
				c0,1.6-1.2,2.4-2.6,2.4c-1.8,0-2.7-0.9-2.7-2.4H43.7z"/>
			<path d="M48.2,229.8c0-1.7,0.9-2.8,2.7-2.8c1.7,0,2.7,1.1,2.7,2.8v2.7c0,1.7-0.9,2.8-2.7,2.8c-1.7,0-2.7-1.1-2.7-2.8V229.8z
				 M49.7,232.3c0,1.3,0.4,1.7,1.2,1.7c0.8,0,1.2-0.4,1.2-1.7v-2.3c0-1.3-0.4-1.7-1.2-1.7c-0.8,0-1.2,0.4-1.2,1.7V232.3z"/>
			<path d="M54.3,231.7v-1.2H57v1.2H54.3z"/>
		</g>
	</g>
</g>
<g>
	<g>
		<g>
			<path d="M127.1,225v-13.7h2.6v11.4h4.2v2.3H127.1z"/>
			<path d="M134.3,225l3.4-13.7h3.4l3.3,13.7h-2.5l-0.7-2.9h-3.6l-0.7,2.9H134.3z M138,219.8h2.6l-1.3-5.5h0L138,219.8z"/>
			<path d="M150.9,225l-2.3-5.6h-1.3v5.6h-2.6v-13.7h3.8c3.2,0,4.7,1.5,4.7,4.1c0,1.7-0.6,2.9-2.1,3.5l2.6,6.1H150.9z M147.4,217.3
				h1.3c1.2,0,1.9-0.6,1.9-1.9c0-1.3-0.7-1.9-1.9-1.9h-1.3V217.3z"/>
			<path d="M160.6,223.9c-0.7,0.8-1.5,1.3-2.5,1.3c-2.5,0-4.3-1.2-4.3-4.6v-4.9c0-3.4,1.8-4.6,4.3-4.6c2.7,0,4.1,1.5,4.2,4.7h-2.6
				c0-1.8-0.6-2.3-1.6-2.3c-1,0-1.7,0.4-1.7,1.9v5.6c0,1.5,0.7,1.9,1.7,1.9c1,0,1.6-0.7,1.6-1.9v-0.8h-1.8V218h4.5v7H161
				L160.6,223.9z"/>
			<path d="M163.4,225v-13.7h7.2v2.3H166v3.2h3.5v2.3H166v3.6h4.7v2.3H163.4z"/>
		</g>
	</g>
	<g>
		<g>
			<path d="M126.8,240.5v-13.7h3.7l2.4,9h0l2.4-9h3.7v13.7h-2.2v-10.8h0l-2.8,10.8h-2l-2.8-10.8h0v10.8H126.8z"/>
			<path d="M139.9,231.2c0-3.4,1.8-4.6,4.3-4.6s4.3,1.2,4.3,4.6v4.9c0,3.4-1.8,4.6-4.3,4.6s-4.3-1.2-4.3-4.6V231.2z M142.5,236.4
				c0,1.5,0.7,1.9,1.7,1.9c1,0,1.7-0.4,1.7-1.9v-5.6c0-1.5-0.7-1.9-1.7-1.9c-1,0-1.7,0.4-1.7,1.9V236.4z"/>
			<path d="M152.3,226.8v9.6c0,1.3,0.6,2,1.8,2c1.3,0,1.9-0.7,1.9-2v-9.6h2.6v9.6c0,3-1.8,4.3-4.5,4.3c-2.7,0-4.5-1.3-4.5-4.3v-9.6
				H152.3z"/>
			<path d="M168.3,226.8v2.3h-3.1v11.4h-2.6v-11.4h-3.1v-2.3H168.3z"/>
			<path d="M169.4,240.5v-13.7h2.6v5.5h3.7v-5.5h2.6v13.7h-2.6v-5.9H172v5.9H169.4z"/>
		</g>
	</g>
	<g>
		<g>
			<path d="M128.6,201.5h-1.2v-0.9c1.2-0.2,1.4-0.6,1.7-1.1h0.9v8.1h-1.4V201.5z"/>
			<path d="M131.9,202.8v-1.6h1.6v1.6H131.9z M131.9,206.1v-1.6h1.6v1.6H131.9z"/>
			<path d="M134.5,202.3c0-1.7,0.9-2.8,2.7-2.8c1.7,0,2.7,1.1,2.7,2.8v2.7c0,1.7-0.9,2.8-2.7,2.8c-1.7,0-2.7-1.1-2.7-2.8V202.3z
				 M135.9,204.8c0,1.3,0.4,1.7,1.2,1.7c0.8,0,1.2-0.4,1.2-1.7v-2.3c0-1.3-0.4-1.7-1.2-1.7c-0.8,0-1.2,0.4-1.2,1.7V204.8z"/>
			<path d="M140.5,202.3c0-1.7,0.9-2.8,2.7-2.8c1.7,0,2.7,1.1,2.7,2.8v2.7c0,1.7-0.9,2.8-2.7,2.8c-1.7,0-2.7-1.1-2.7-2.8V202.3z
				 M141.9,204.8c0,1.3,0.4,1.7,1.2,1.7c0.8,0,1.2-0.4,1.2-1.7v-2.3c0-1.3-0.4-1.7-1.2-1.7c-0.8,0-1.2,0.4-1.2,1.7V204.8z"/>
			<path d="M146.6,204.2V203h2.7v1.2H146.6z"/>
		</g>
	</g>
</g>
<g>
	<g>
		<g>
			<path d="M218.1,225v-13.7h2.6v5.7h0l3.4-5.7h2.9l-3.5,5.5l3.9,8.2h-2.9l-2.7-5.8l-1,1.6v4.2H218.1z"/>
			<path d="M227.8,225v-13.7h3.7l2.4,9h0l2.4-9h3.7V225h-2.2v-10.8h0l-2.8,10.8h-2l-2.8-10.8h0V225H227.8z"/>
			<path d="M249.6,211.3v2.3h-3.1V225h-2.6v-11.4h-3.1v-2.3H249.6z"/>
			<path d="M256.7,225l-2.3-5.6h-1.3v5.6h-2.6v-13.7h3.8c3.2,0,4.7,1.5,4.7,4.1c0,1.7-0.6,2.9-2.1,3.5l2.6,6.1H256.7z M253.1,217.3
				h1.3c1.2,0,1.9-0.6,1.9-1.9c0-1.3-0.7-1.9-1.9-1.9h-1.3V217.3z"/>
		</g>
	</g>
	<g>
		<g>
			<path d="M220.6,201.5h-1.2v-0.9c1.2-0.2,1.4-0.6,1.7-1.1h0.9v8.1h-1.4V201.5z"/>
			<path d="M223.9,202.8v-1.6h1.6v1.6H223.9z M223.9,206.1v-1.6h1.6v1.6H223.9z"/>
			<path d="M226.5,202.3c0-1.7,0.9-2.8,2.7-2.8c1.7,0,2.7,1.1,2.7,2.8v2.7c0,1.7-0.9,2.8-2.7,2.8c-1.7,0-2.7-1.1-2.7-2.8V202.3z
				 M227.9,204.8c0,1.3,0.4,1.7,1.2,1.7c0.8,0,1.2-0.4,1.2-1.7v-2.3c0-1.3-0.4-1.7-1.2-1.7c-0.8,0-1.2,0.4-1.2,1.7V204.8z"/>
			<path d="M232.5,202.3c0-1.7,0.9-2.8,2.7-2.8c1.7,0,2.7,1.1,2.7,2.8v2.7c0,1.7-0.9,2.8-2.7,2.8c-1.7,0-2.7-1.1-2.7-2.8V202.3z
				 M233.9,204.8c0,1.3,0.4,1.7,1.2,1.7c0.8,0,1.2-0.4,1.2-1.7v-2.3c0-1.3-0.4-1.7-1.2-1.7c-0.8,0-1.2,0.4-1.2,1.7V204.8z"/>
			<path d="M238.6,204.2V203h2.7v1.2H238.6z"/>
		</g>
	</g>
</g>
<g>
	<g>
		<g>
			<path d="M34.4,307.5v-13.7H38l2.4,9h0l2.4-9h3.7v13.7h-2.2v-10.8h0l-2.8,10.8h-2l-2.8-10.8h0v10.8H34.4z"/>
			<path d="M46.8,307.5l3.4-13.7h3.4l3.3,13.7h-2.5l-0.7-2.9h-3.6l-0.7,2.9H46.8z M50.6,302.3h2.6l-1.3-5.5h0L50.6,302.3z"/>
			<path d="M57.4,307.5v-13.7H60v5.7h0l3.4-5.7h2.9l-3.5,5.5l3.9,8.2h-2.9l-2.7-5.8l-1,1.6v4.2H57.4z"/>
			<path d="M66.4,298.2c0-3.4,1.8-4.6,4.3-4.6s4.3,1.2,4.3,4.6v4.9c0,3.4-1.8,4.6-4.3,4.6s-4.3-1.2-4.3-4.6V298.2z M69,303.5
				c0,1.5,0.7,1.9,1.7,1.9c1,0,1.7-0.4,1.7-1.9v-5.6c0-1.5-0.7-1.9-1.7-1.9c-1,0-1.7,0.4-1.7,1.9V303.5z"/>
			<path d="M84.2,293.8v2.3h-3.1v11.4h-2.6v-11.4h-3.1v-2.3H84.2z"/>
			<path d="M84.4,298.2c0-3.4,1.8-4.6,4.3-4.6c2.5,0,4.3,1.2,4.3,4.6v4.9c0,3.4-1.8,4.6-4.3,4.6c-2.5,0-4.3-1.2-4.3-4.6V298.2z
				 M87,303.5c0,1.5,0.7,1.9,1.7,1.9s1.7-0.4,1.7-1.9v-5.6c0-1.5-0.7-1.9-1.7-1.9s-1.7,0.4-1.7,1.9V303.5z"/>
		</g>
	</g>
	<g>
		<g>
			<path d="M34.4,290.1v-1.3c3.2-3,3.7-3.6,3.7-4.4c0-0.6-0.4-1.1-1.1-1.1c-0.7,0-1.1,0.5-1.1,1v0.3h-1.5v-0.4
				c0-1.2,0.9-2.2,2.5-2.2c1.6,0,2.6,0.8,2.6,2.3c0,1.8-2.1,3.3-3.3,4.5h3.2v1.3H34.4z"/>
			<path d="M40.4,285.3v-1.6H42v1.6H40.4z M40.4,288.6V287H42v1.6H40.4z"/>
			<path d="M44.2,287.8c0,0.8,0.4,1.2,1.2,1.2c0.7,0,1.2-0.5,1.2-1.2c0-0.9-0.5-1.2-1.6-1.2v-1.3c1,0,1.4-0.3,1.4-1c0-0.6-0.4-1-1-1
				c-0.5,0-0.9,0.4-1,0.9h-1.5c0-1.5,1.1-2.2,2.4-2.2c1.4,0,2.5,0.7,2.5,2.2c0,0.7-0.3,1.4-1,1.7c0.8,0.3,1.1,1,1.1,1.9
				c0,1.6-1.2,2.4-2.6,2.4c-1.8,0-2.7-0.9-2.7-2.4H44.2z"/>
			<path d="M48.8,284.8c0-1.7,0.9-2.8,2.7-2.8c1.7,0,2.7,1.1,2.7,2.8v2.7c0,1.7-0.9,2.8-2.7,2.8c-1.7,0-2.7-1.1-2.7-2.8V284.8z
				 M50.3,287.3c0,1.3,0.4,1.7,1.2,1.7c0.8,0,1.2-0.4,1.2-1.7v-2.3c0-1.3-0.4-1.7-1.2-1.7c-0.8,0-1.2,0.4-1.2,1.7V287.3z"/>
			<path d="M54.9,286.7v-1.2h2.7v1.2H54.9z"/>
		</g>
	</g>
</g>
<g>
	<g>
		<g>
			<path d="M134.2,266.3v2.3h-3.1V280h-2.6v-11.4h-3.1v-2.3H134.2z"/>
			<path d="M135.1,280v-13.7h2.6V280H135.1z"/>
			<path d="M139.1,280v-13.7h3.7l2.4,9h0l2.4-9h3.7V280H149v-10.8h0l-2.8,10.8h-2l-2.8-10.8h0V280H139.1z"/>
			<path d="M152.5,280v-13.7h7.2v2.3h-4.6v3.2h3.5v2.3h-3.5v3.6h4.7v2.3H152.5z"/>
			<path d="M166.1,270.1c-0.4-1.3-1-1.8-1.9-1.8c-0.9,0-1.4,0.6-1.4,1.5c0,2.1,5.9,2.2,5.9,6.5c0,2.4-1.6,3.9-4.4,3.9
				c-2.1,0-3.8-1.2-4.5-3.9l2.6-0.6c0.3,1.7,1.3,2.2,2,2.2c0.9,0,1.6-0.6,1.6-1.6c0-2.6-5.9-2.6-5.9-6.5c0-2.4,1.4-3.8,4.1-3.8
				c2.3,0,3.8,1.4,4.2,3.3L166.1,270.1z"/>
			<path d="M169.3,280v-13.7h2.6v11.4h4.2v2.3H169.3z"/>
			<path d="M179.3,266.3v9.6c0,1.3,0.6,2,1.8,2c1.3,0,1.9-0.7,1.9-2v-9.6h2.6v9.6c0,3-1.8,4.3-4.5,4.3c-2.7,0-4.5-1.3-4.5-4.3v-9.6
				H179.3z"/>
			<path d="M195.2,266.3v2.3h-3.1V280h-2.6v-11.4h-3.1v-2.3H195.2z"/>
		</g>
	</g>
	<g>
		<g>
			<path d="M44.8,262c-0.4,1.1-0.9,2.3-1.6,3.4c0.6,0.4,1.2,0.7,1.9,0.8v2.3c-1.3,0-2.2-0.3-3.5-1.4c-0.9,0.9-2.1,1.4-3.4,1.4
				c-2.6,0-4.5-1.3-4.5-3.8c0-1.9,1-2.9,2.3-3.8c-0.7-1.1-1.1-1.9-1.1-3.1c0-2.4,1.7-3.4,3.5-3.4c1.9,0,3.2,1.4,3.2,3.1
				c0,1.8-1.4,2.8-2.6,3.8c0.7,1,1.6,1.9,2.5,2.8c0.5-0.9,1-1.7,1.2-2.7L44.8,262z M38.3,266.4c0.7,0,1.4-0.3,1.8-0.8
				c-1-0.9-1.9-1.9-2.7-2.9c-0.6,0.5-1,0.9-1,1.7C36.3,265.7,37.3,266.4,38.3,266.4z M37.1,257.5c0,0.8,0.3,1.4,0.8,2.2
				c0.7-0.6,1.6-1.3,1.6-2.4c0-0.6-0.4-1.3-1.2-1.3C37.5,256,37.1,256.7,37.1,257.5z"/>
			<path d="M54,258.4c-0.4-1.3-1-1.8-1.9-1.8c-0.9,0-1.4,0.6-1.4,1.5c0,2.1,5.9,2.2,5.9,6.5c0,2.4-1.6,3.9-4.4,3.9
				c-2.1,0-3.8-1.2-4.5-3.9l2.6-0.6c0.3,1.7,1.3,2.2,2,2.2c0.9,0,1.6-0.6,1.6-1.6c0-2.6-5.9-2.6-5.9-6.5c0-2.4,1.4-3.8,4.1-3.8
				c2.3,0,3.8,1.4,4.2,3.3L54,258.4z"/>
			<path d="M57.2,268.3v-13.7h2.6v5.5h3.7v-5.5h2.6v13.7h-2.6v-5.9h-3.7v5.9H57.2z"/>
			<path d="M67.6,268.3v-13.7h2.6v13.7H67.6z"/>
			<path d="M71.5,268.3v-13.7h2.9l3.6,8.1h0v-8.1h2.4v13.7H78l-4-8.9h0v8.9H71.5z"/>
			<path d="M81.7,268.3v-13.7h7.2v2.3h-4.6v3.2h3.5v2.3h-3.5v3.6h4.7v2.3H81.7z"/>
		</g>
	</g>
	<g>
		<g>
			<path d="M44.8,317c-0.4,1.1-0.9,2.3-1.6,3.4c0.6,0.4,1.2,0.7,1.9,0.8v2.3c-1.3,0-2.2-0.3-3.5-1.4c-0.9,0.9-2.1,1.4-3.4,1.4
				c-2.6,0-4.5-1.3-4.5-3.8c0-1.9,1-2.9,2.3-3.8c-0.7-1.1-1.1-1.9-1.1-3.1c0-2.4,1.7-3.4,3.5-3.4c1.9,0,3.2,1.4,3.2,3.1
				c0,1.8-1.4,2.8-2.6,3.8c0.7,1,1.6,1.9,2.5,2.8c0.5-0.9,1-1.7,1.2-2.7L44.8,317z M38.3,321.4c0.7,0,1.4-0.3,1.8-0.8
				c-1-0.9-1.9-1.9-2.7-2.9c-0.6,0.5-1,0.9-1,1.7C36.3,320.7,37.3,321.4,38.3,321.4z M37.1,312.5c0,0.8,0.3,1.4,0.8,2.2
				c0.7-0.6,1.6-1.3,1.6-2.4c0-0.6-0.4-1.3-1.2-1.3C37.5,311,37.1,311.7,37.1,312.5z"/>
			<path d="M47.6,323.3v-13.7h2.6v5.7h0l3.4-5.7h2.9l-3.5,5.5l3.9,8.2H54l-2.7-5.8l-1,1.6v4.2H47.6z"/>
			<path d="M57.2,323.3v-13.7h7.2v2.3h-4.6v3.2h3.5v2.3h-3.5v3.6h4.7v2.3H57.2z"/>
			<path d="M69.7,315.1l2.2-5.5h2.8l-3.7,8.2v5.5h-2.6v-5.5l-3.7-8.2h2.8L69.7,315.1z"/>
			<path d="M77.4,323.3v-13.7h3.7l2.4,9h0l2.4-9h3.7v13.7h-2.2v-10.8h0l-2.8,10.8h-2l-2.8-10.8h0v10.8H77.4z"/>
			<path d="M92.9,319.3c0,1.5,0.7,1.9,1.7,1.9s1.7-0.4,1.7-1.9v-0.9H99v0.6c0,3.4-1.8,4.6-4.3,4.6s-4.3-1.2-4.3-4.6V314
				c0-3.4,1.8-4.6,4.3-4.6s4.3,1.2,4.3,4.6v0h-2.6v-0.4c0-1.5-0.7-1.9-1.7-1.9s-1.7,0.4-1.7,1.9V319.3z"/>
		</g>
	</g>
	<g>
		<g>
			<path d="M136.8,289.5c-0.4,1.1-0.9,2.3-1.6,3.4c0.6,0.4,1.2,0.7,1.9,0.8v2.3c-1.3,0-2.2-0.3-3.5-1.4c-0.9,0.9-2.1,1.4-3.4,1.4
				c-2.6,0-4.5-1.3-4.5-3.8c0-1.9,1-2.9,2.3-3.8c-0.7-1.1-1.1-1.9-1.1-3.1c0-2.4,1.7-3.4,3.5-3.4c1.9,0,3.2,1.4,3.2,3.1
				c0,1.8-1.4,2.8-2.6,3.8c0.7,1,1.6,1.9,2.5,2.8c0.5-0.9,1-1.7,1.2-2.7L136.8,289.5z M130.3,293.9c0.7,0,1.4-0.3,1.8-0.8
				c-1-0.9-1.9-1.9-2.7-2.9c-0.6,0.5-1,0.9-1,1.7C128.3,293.2,129.3,293.9,130.3,293.9z M129.1,285c0,0.8,0.3,1.4,0.8,2.2
				c0.7-0.6,1.6-1.3,1.6-2.4c0-0.6-0.4-1.3-1.2-1.3C129.5,283.5,129.1,284.2,129.1,285z"/>
			<path d="M145.9,285.9c-0.4-1.3-1-1.8-1.9-1.8c-0.9,0-1.4,0.6-1.4,1.5c0,2.1,5.9,2.2,5.9,6.5c0,2.4-1.6,3.9-4.4,3.9
				c-2.1,0-3.8-1.2-4.5-3.9l2.6-0.6c0.3,1.7,1.3,2.2,2,2.2c0.9,0,1.6-0.6,1.6-1.6c0-2.6-5.9-2.6-5.9-6.5c0-2.4,1.4-3.8,4.1-3.8
				c2.3,0,3.8,1.4,4.2,3.3L145.9,285.9z"/>
			<path d="M157.3,282.1v2.3h-3.1v11.4h-2.6v-11.4h-3.1v-2.3H157.3z"/>
			<path d="M157.7,286.5c0-3.4,1.8-4.6,4.3-4.6s4.3,1.2,4.3,4.6v4.9c0,3.4-1.8,4.6-4.3,4.6s-4.3-1.2-4.3-4.6V286.5z M160.3,291.8
				c0,1.5,0.7,1.9,1.7,1.9c1,0,1.7-0.4,1.7-1.9v-5.6c0-1.5-0.7-1.9-1.7-1.9c-1,0-1.7,0.4-1.7,1.9V291.8z"/>
			<path d="M167.3,295.8v-13.7h2.9l3.6,8.1h0v-8.1h2.4v13.7h-2.5l-4-8.9h0v8.9H167.3z"/>
			<path d="M177.4,295.8v-13.7h7.2v2.3H180v3.2h3.5v2.3H180v3.6h4.7v2.3H177.4z"/>
		</g>
	</g>
	<g>
		<g>
			<path d="M126.4,262.6v-1.3c3.2-3,3.7-3.6,3.7-4.4c0-0.6-0.4-1.1-1.1-1.1c-0.7,0-1.1,0.5-1.1,1v0.3h-1.5v-0.4
				c0-1.2,0.9-2.2,2.5-2.2c1.6,0,2.6,0.8,2.6,2.3c0,1.8-2.1,3.3-3.3,4.5h3.2v1.3H126.4z"/>
			<path d="M132.8,257.8v-1.6h1.6v1.6H132.8z M132.8,261.1v-1.6h1.6v1.6H132.8z"/>
			<path d="M135.3,257.3c0-1.7,0.9-2.8,2.7-2.8c1.7,0,2.7,1.1,2.7,2.8v2.7c0,1.7-0.9,2.8-2.7,2.8c-1.7,0-2.7-1.1-2.7-2.8V257.3z
				 M136.8,259.8c0,1.3,0.4,1.7,1.2,1.7c0.8,0,1.2-0.4,1.2-1.7v-2.3c0-1.3-0.4-1.7-1.2-1.7c-0.8,0-1.2,0.4-1.2,1.7V259.8z"/>
			<path d="M141.4,257.3c0-1.7,0.9-2.8,2.7-2.8c1.7,0,2.7,1.1,2.7,2.8v2.7c0,1.7-0.9,2.8-2.7,2.8c-1.7,0-2.7-1.1-2.7-2.8V257.3z
				 M142.8,259.8c0,1.3,0.4,1.7,1.2,1.7c0.8,0,1.2-0.4,1.2-1.7v-2.3c0-1.3-0.4-1.7-1.2-1.7c-0.8,0-1.2,0.4-1.2,1.7V259.8z"/>
			<path d="M147.4,259.2V258h2.7v1.2H147.4z"/>
		</g>
	</g>
</g>
<g>
	<g>
		<g>
			<path d="M219.4,280v-13.7h2.6v5.5h3.7v-5.5h2.6V280h-2.6v-5.9H222v5.9H219.4z"/>
			<path d="M229.7,280v-13.7h2.6V280H229.7z"/>
			<path d="M240,280l-2.3-5.6h-1.3v5.6h-2.6v-13.7h3.8c3.2,0,4.7,1.5,4.7,4.1c0,1.7-0.6,2.9-2.1,3.5l2.6,6.1H240z M236.5,272.3h1.3
				c1.2,0,1.9-0.6,1.9-1.9c0-1.3-0.7-1.9-1.9-1.9h-1.3V272.3z"/>
			<path d="M242.9,270.7c0-3.4,1.8-4.6,4.3-4.6s4.3,1.2,4.3,4.6v4.9c0,3.4-1.8,4.6-4.3,4.6s-4.3-1.2-4.3-4.6V270.7z M245.5,276
				c0,1.5,0.7,1.9,1.7,1.9c1,0,1.7-0.4,1.7-1.9v-5.6c0-1.5-0.7-1.9-1.7-1.9c-1,0-1.7,0.4-1.7,1.9V276z"/>
			<path d="M252.5,280v-13.7h6.8v2.3h-4.2v3.2h3.3v2.3h-3.3v5.9H252.5z"/>
			<path d="M262.8,266.3v9.6c0,1.3,0.6,2,1.8,2c1.3,0,1.9-0.7,1.9-2v-9.6h2.6v9.6c0,3-1.8,4.3-4.5,4.3c-2.7,0-4.5-1.3-4.5-4.3v-9.6
				H262.8z"/>
			<path d="M270.5,280v-13.7h3.7l2.4,9h0l2.4-9h3.7V280h-2.2v-10.8h0l-2.8,10.8h-2l-2.8-10.8h0V280H270.5z"/>
			<path d="M283.9,280v-13.7h2.6V280H283.9z"/>
		</g>
	</g>
	<g>
		<g>
			<path d="M219.1,295.8l3.4-13.7h3.4l3.3,13.7h-2.5l-0.7-2.9h-3.6l-0.7,2.9H219.1z M222.8,290.6h2.6l-1.3-5.5h0L222.8,290.6z"/>
			<path d="M235.3,285.9c-0.4-1.3-1-1.8-1.9-1.8c-0.9,0-1.4,0.6-1.4,1.5c0,2.1,5.9,2.2,5.9,6.5c0,2.4-1.6,3.9-4.4,3.9
				c-2.1,0-3.8-1.2-4.5-3.9l2.6-0.6c0.3,1.7,1.3,2.2,2,2.2c0.9,0,1.6-0.6,1.6-1.6c0-2.6-5.9-2.6-5.9-6.5c0-2.4,1.4-3.8,4.1-3.8
				c2.3,0,3.8,1.4,4.2,3.3L235.3,285.9z"/>
			<path d="M237.8,295.8l3.4-13.7h3.4l3.3,13.7h-2.5l-0.7-2.9H241l-0.7,2.9H237.8z M241.5,290.6h2.6l-1.3-5.5h0L241.5,290.6z"/>
			<path d="M248.3,295.8v-13.7h3.7l2.4,9h0l2.4-9h3.7v13.7h-2.2V285h0l-2.8,10.8h-2l-2.8-10.8h0v10.8H248.3z"/>
			<path d="M261.6,286.5c0-3.4,1.8-4.6,4.3-4.6s4.3,1.2,4.3,4.6v4.9c0,3.4-1.8,4.6-4.3,4.6s-4.3-1.2-4.3-4.6V286.5z M264.2,291.8
				c0,1.5,0.7,1.9,1.7,1.9c1,0,1.7-0.4,1.7-1.9v-5.6c0-1.5-0.7-1.9-1.7-1.9c-1,0-1.7,0.4-1.7,1.9V291.8z"/>
			<path d="M279.4,282.1v2.3h-3.1v11.4h-2.6v-11.4h-3.1v-2.3H279.4z"/>
			<path d="M279.8,286.5c0-3.4,1.8-4.6,4.3-4.6s4.3,1.2,4.3,4.6v4.9c0,3.4-1.8,4.6-4.3,4.6s-4.3-1.2-4.3-4.6V286.5z M282.4,291.8
				c0,1.5,0.7,1.9,1.7,1.9c1,0,1.7-0.4,1.7-1.9v-5.6c0-1.5-0.7-1.9-1.7-1.9c-1,0-1.7,0.4-1.7,1.9V291.8z"/>
		</g>
	</g>
	<g>
		<g>
			<path d="M218.4,262.6v-1.3c3.2-3,3.7-3.6,3.7-4.4c0-0.6-0.4-1.1-1.1-1.1c-0.7,0-1.1,0.5-1.1,1v0.3h-1.5v-0.4
				c0-1.2,0.9-2.2,2.5-2.2c1.6,0,2.6,0.8,2.6,2.3c0,1.8-2.1,3.3-3.3,4.5h3.2v1.3H218.4z"/>
			<path d="M224.8,257.8v-1.6h1.6v1.6H224.8z M224.8,261.1v-1.6h1.6v1.6H224.8z"/>
			<path d="M227.3,257.3c0-1.7,0.9-2.8,2.7-2.8c1.7,0,2.7,1.1,2.7,2.8v2.7c0,1.7-0.9,2.8-2.7,2.8c-1.7,0-2.7-1.1-2.7-2.8V257.3z
				 M228.8,259.8c0,1.3,0.4,1.7,1.2,1.7c0.8,0,1.2-0.4,1.2-1.7v-2.3c0-1.3-0.4-1.7-1.2-1.7c-0.8,0-1.2,0.4-1.2,1.7V259.8z"/>
			<path d="M233.4,257.3c0-1.7,0.9-2.8,2.7-2.8c1.7,0,2.7,1.1,2.7,2.8v2.7c0,1.7-0.9,2.8-2.7,2.8c-1.7,0-2.7-1.1-2.7-2.8V257.3z
				 M234.8,259.8c0,1.3,0.4,1.7,1.2,1.7c0.8,0,1.2-0.4,1.2-1.7v-2.3c0-1.3-0.4-1.7-1.2-1.7c-0.8,0-1.2,0.4-1.2,1.7V259.8z"/>
			<path d="M239.4,259.2V258h2.7v1.2H239.4z"/>
		</g>
	</g>
</g>
<g>
	<g>
		<g>
			<path d="M34.2,348.8h3.6c3,0,4.7,1.3,4.8,4.7v4.2c-0.1,3.5-1.8,4.7-4.8,4.7h-3.6V348.8z M36.8,360.2h0.9c1.4,0,2.3-0.7,2.3-2.7
				v-3.6c0-1.9-0.6-2.7-2.3-2.7h-0.9V360.2z"/>
			<path d="M47.2,352.9l2-4.1H52l-3.3,6.5l3.6,7.2h-2.8l-2.3-4.8l-2.3,4.8h-2.8l3.7-7.2l-3.4-6.5h2.8L47.2,352.9z"/>
		</g>
	</g>
	<g>
		<g>
			<path d="M35.8,342.8c0,0.8,0.4,1.2,1.2,1.2c0.7,0,1.2-0.5,1.2-1.2c0-0.9-0.5-1.2-1.6-1.2v-1.3c1,0,1.4-0.3,1.4-1c0-0.6-0.4-1-1-1
				c-0.5,0-0.9,0.4-1,0.9h-1.5c0-1.5,1.1-2.2,2.4-2.2c1.4,0,2.5,0.7,2.5,2.2c0,0.7-0.3,1.4-1,1.7c0.8,0.3,1.1,1,1.1,1.9
				c0,1.6-1.2,2.4-2.6,2.4c-1.8,0-2.7-0.9-2.7-2.4H35.8z"/>
			<path d="M40.4,340.3v-1.6H42v1.6H40.4z M40.4,343.6V342H42v1.6H40.4z"/>
			<path d="M44.2,342.8c0,0.8,0.4,1.2,1.2,1.2c0.7,0,1.2-0.5,1.2-1.2c0-0.9-0.5-1.2-1.6-1.2v-1.3c1,0,1.4-0.3,1.4-1c0-0.6-0.4-1-1-1
				c-0.5,0-0.9,0.4-1,0.9h-1.5c0-1.5,1.1-2.2,2.4-2.2c1.4,0,2.5,0.7,2.5,2.2c0,0.7-0.3,1.4-1,1.7c0.8,0.3,1.1,1,1.1,1.9
				c0,1.6-1.2,2.4-2.6,2.4c-1.8,0-2.7-0.9-2.7-2.4H44.2z"/>
			<path d="M48.8,339.8c0-1.7,0.9-2.8,2.7-2.8c1.7,0,2.7,1.1,2.7,2.8v2.7c0,1.7-0.9,2.8-2.7,2.8c-1.7,0-2.7-1.1-2.7-2.8V339.8z
				 M50.3,342.3c0,1.3,0.4,1.7,1.2,1.7c0.8,0,1.2-0.4,1.2-1.7v-2.3c0-1.3-0.4-1.7-1.2-1.7c-0.8,0-1.2,0.4-1.2,1.7V342.3z"/>
			<path d="M54.9,341.7v-1.2h2.7v1.2H54.9z"/>
		</g>
	</g>
</g>
<g>
	<g>
		<g>
			<path d="M126.3,335v-13.7h2.6v5.5h3.7v-5.5h2.6V335h-2.6v-5.9h-3.7v5.9H126.3z"/>
			<path d="M136,335v-2.7h2.7v2.7H136z"/>
			<path d="M145.4,325.1c-0.4-1.3-1-1.8-1.9-1.8c-0.9,0-1.4,0.6-1.4,1.5c0,2.1,5.9,2.2,5.9,6.5c0,2.4-1.6,3.9-4.4,3.9
				c-2.1,0-3.8-1.2-4.5-3.9l2.6-0.6c0.3,1.7,1.3,2.2,2,2.2c0.9,0,1.6-0.6,1.6-1.6c0-2.6-5.9-2.6-5.9-6.5c0-2.4,1.4-3.8,4.1-3.8
				c2.3,0,3.8,1.4,4.2,3.3L145.4,325.1z"/>
			<path d="M148.8,335v-13.7h2.6v5.5h3.7v-5.5h2.6V335h-2.6v-5.9h-3.7v5.9H148.8z"/>
			<path d="M159.3,335v-13.7h2.6V335H159.3z"/>
			<path d="M169.9,335l-2.3-5.6h-1.3v5.6h-2.6v-13.7h3.8c3.2,0,4.7,1.5,4.7,4.1c0,1.7-0.6,2.9-2.1,3.5l2.6,6.1H169.9z M166.4,327.3
				h1.3c1.2,0,1.9-0.6,1.9-1.9c0-1.3-0.7-1.9-1.9-1.9h-1.3V327.3z"/>
			<path d="M171.6,335l3.4-13.7h3.4l3.3,13.7h-2.5l-0.7-2.9h-3.6l-0.7,2.9H171.6z M175.3,329.8h2.6l-1.3-5.5h0L175.3,329.8z"/>
			<path d="M188.8,321.3v2.3h-3.1V335h-2.6v-11.4h-3.1v-2.3H188.8z"/>
			<path d="M189.2,325.7c0-3.4,1.8-4.6,4.3-4.6s4.3,1.2,4.3,4.6v4.9c0,3.4-1.8,4.6-4.3,4.6s-4.3-1.2-4.3-4.6V325.7z M191.8,331
				c0,1.5,0.7,1.9,1.7,1.9c1,0,1.7-0.4,1.7-1.9v-5.6c0-1.5-0.7-1.9-1.7-1.9c-1,0-1.7,0.4-1.7,1.9V331z"/>
			<path d="M205.2,335l-2.3-5.6h-1.3v5.6H199v-13.7h3.8c3.2,0,4.7,1.5,4.7,4.1c0,1.7-0.6,2.9-2.1,3.5l2.6,6.1H205.2z M201.7,327.3
				h1.3c1.2,0,1.9-0.6,1.9-1.9c0-1.3-0.7-1.9-1.9-1.9h-1.3V327.3z"/>
			<path d="M208.5,335v-13.7h2.6V335H208.5z"/>
		</g>
	</g>
	<g>
		<g>
			<path d="M127.8,315.3c0,0.8,0.4,1.2,1.2,1.2c0.7,0,1.2-0.5,1.2-1.2c0-0.9-0.5-1.2-1.6-1.2v-1.3c1,0,1.4-0.3,1.4-1
				c0-0.6-0.4-1-1-1c-0.5,0-0.9,0.4-1,0.9h-1.5c0-1.5,1.1-2.2,2.4-2.2c1.4,0,2.5,0.7,2.5,2.2c0,0.7-0.3,1.4-1,1.7
				c0.8,0.3,1.1,1,1.1,1.9c0,1.6-1.2,2.4-2.6,2.4c-1.8,0-2.7-0.9-2.7-2.4H127.8z"/>
			<path d="M132.8,312.8v-1.6h1.6v1.6H132.8z M132.8,316.1v-1.6h1.6v1.6H132.8z"/>
			<path d="M135.3,312.3c0-1.7,0.9-2.8,2.7-2.8c1.7,0,2.7,1.1,2.7,2.8v2.7c0,1.7-0.9,2.8-2.7,2.8c-1.7,0-2.7-1.1-2.7-2.8V312.3z
				 M136.8,314.8c0,1.3,0.4,1.7,1.2,1.7c0.8,0,1.2-0.4,1.2-1.7v-2.3c0-1.3-0.4-1.7-1.2-1.7c-0.8,0-1.2,0.4-1.2,1.7V314.8z"/>
			<path d="M141.4,312.3c0-1.7,0.9-2.8,2.7-2.8c1.7,0,2.7,1.1,2.7,2.8v2.7c0,1.7-0.9,2.8-2.7,2.8c-1.7,0-2.7-1.1-2.7-2.8V312.3z
				 M142.8,314.8c0,1.3,0.4,1.7,1.2,1.7c0.8,0,1.2-0.4,1.2-1.7v-2.3c0-1.3-0.4-1.7-1.2-1.7c-0.8,0-1.2,0.4-1.2,1.7V314.8z"/>
			<path d="M147.4,314.2V313h2.7v1.2H147.4z"/>
		</g>
	</g>
</g>
<g>
	<g>
		<g>
			<path d="M218.1,335l3.4-13.7h3.4l3.3,13.7h-2.5l-0.7-2.9h-3.6l-0.7,2.9H218.1z M221.8,329.8h2.6l-1.3-5.5h0L221.8,329.8z"/>
			<path d="M231.2,326.9l2.2-5.5h2.8l-3.7,8.2v5.5h-2.6v-5.5l-3.7-8.2h2.8L231.2,326.9z"/>
			<path d="M234.2,335l3.4-13.7h3.4l3.3,13.7h-2.5l-0.7-2.9h-3.6l-0.7,2.9H234.2z M238,329.8h2.6l-1.3-5.5h0L238,329.8z"/>
		</g>
	</g>
	<g>
		<g>
			<path d="M219.8,315.3c0,0.8,0.4,1.2,1.2,1.2c0.7,0,1.2-0.5,1.2-1.2c0-0.9-0.5-1.2-1.6-1.2v-1.3c1,0,1.4-0.3,1.4-1
				c0-0.6-0.4-1-1-1c-0.5,0-0.9,0.4-1,0.9h-1.5c0-1.5,1.1-2.2,2.4-2.2c1.4,0,2.5,0.7,2.5,2.2c0,0.7-0.3,1.4-1,1.7
				c0.8,0.3,1.1,1,1.1,1.9c0,1.6-1.2,2.4-2.6,2.4c-1.8,0-2.7-0.9-2.7-2.4H219.8z"/>
			<path d="M224.8,312.8v-1.6h1.6v1.6H224.8z M224.8,316.1v-1.6h1.6v1.6H224.8z"/>
			<path d="M227.3,312.3c0-1.7,0.9-2.8,2.7-2.8c1.7,0,2.7,1.1,2.7,2.8v2.7c0,1.7-0.9,2.8-2.7,2.8c-1.7,0-2.7-1.1-2.7-2.8V312.3z
				 M228.8,314.8c0,1.3,0.4,1.7,1.2,1.7c0.8,0,1.2-0.4,1.2-1.7v-2.3c0-1.3-0.4-1.7-1.2-1.7c-0.8,0-1.2,0.4-1.2,1.7V314.8z"/>
			<path d="M233.4,312.3c0-1.7,0.9-2.8,2.7-2.8c1.7,0,2.7,1.1,2.7,2.8v2.7c0,1.7-0.9,2.8-2.7,2.8c-1.7,0-2.7-1.1-2.7-2.8V312.3z
				 M234.8,314.8c0,1.3,0.4,1.7,1.2,1.7c0.8,0,1.2-0.4,1.2-1.7v-2.3c0-1.3-0.4-1.7-1.2-1.7c-0.8,0-1.2,0.4-1.2,1.7V314.8z"/>
			<path d="M239.4,314.2V313h2.7v1.2H239.4z"/>
		</g>
	</g>
</g>
<g>
	<g>
		<g>
			<path d="M34.2,417.5v-13.7h7.2v2.3h-4.6v3.2h3.5v2.3h-3.5v3.6h4.7v2.3H34.2z"/>
			<path d="M42.5,417.5v-13.7h2.9L49,412h0v-8.1h2.4v13.7h-2.5l-4-8.9h0v8.9H42.5z"/>
			<path d="M51.8,417.5l3.4-13.7h3.4l3.3,13.7h-2.5l-0.7-2.9h-3.6l-0.7,2.9H51.8z M55.6,412.3h2.6l-1.3-5.5h0L55.6,412.3z"/>
		</g>
	</g>
	<g>
		<g>
			<path d="M37.4,392.1h1.5v4.7H40v1.1h-1.1v2.1h-1.4V398H34v-1.3L37.4,392.1z M37.5,396.9v-3.1h0l-2.3,3.1H37.5z"/>
			<path d="M40.6,395.3v-1.6h1.6v1.6H40.6z M40.6,398.6V397h1.6v1.6H40.6z"/>
			<path d="M44.6,397.8c0,0.8,0.4,1.2,1.2,1.2c0.7,0,1.2-0.5,1.2-1.2c0-0.9-0.5-1.2-1.6-1.2v-1.3c1,0,1.4-0.3,1.4-1c0-0.6-0.4-1-1-1
				c-0.5,0-0.9,0.4-1,0.9h-1.5c0-1.5,1.1-2.2,2.4-2.2c1.4,0,2.5,0.7,2.5,2.2c0,0.7-0.3,1.4-1,1.7c0.8,0.3,1.1,1,1.1,1.9
				c0,1.6-1.2,2.4-2.6,2.4c-1.8,0-2.7-0.9-2.7-2.4H44.6z"/>
			<path d="M49,394.8c0-1.7,0.9-2.8,2.7-2.8c1.7,0,2.7,1.1,2.7,2.8v2.7c0,1.7-0.9,2.8-2.7,2.8c-1.7,0-2.7-1.1-2.7-2.8V394.8z
				 M50.5,397.3c0,1.3,0.4,1.7,1.2,1.7c0.8,0,1.2-0.4,1.2-1.7v-2.3c0-1.3-0.4-1.7-1.2-1.7c-0.8,0-1.2,0.4-1.2,1.7V397.3z"/>
			<path d="M55.1,396.7v-1.2h2.7v1.2H55.1z"/>
		</g>
	</g>
</g>
<g>
	<g>
		<g>
			<path d="M126.3,390v-13.7h3.7l2.4,9h0l2.4-9h3.7V390h-2.2v-10.8h0l-2.8,10.8h-2l-2.8-10.8h0V390H126.3z"/>
			<path d="M139.8,390v-13.7h7.2v2.3h-4.6v3.2h3.5v2.3h-3.5v3.6h4.7v2.3H139.8z"/>
			<path d="M148.2,376.3h3.6c3,0,4.7,1.3,4.8,4.7v4.2c-0.1,3.5-1.8,4.7-4.8,4.7h-3.6V376.3z M150.9,387.7h0.9c1.4,0,2.3-0.7,2.3-2.7
				v-3.6c0-1.9-0.6-2.7-2.3-2.7h-0.9V387.7z"/>
			<path d="M157.6,390v-13.7h2.6V390H157.6z"/>
			<path d="M164,386c0,1.5,0.7,1.9,1.7,1.9c1,0,1.7-0.4,1.7-1.9v-0.9h2.6v0.6c0,3.4-1.8,4.6-4.3,4.6c-2.5,0-4.3-1.2-4.3-4.6v-4.9
				c0-3.4,1.8-4.6,4.3-4.6c2.5,0,4.3,1.2,4.3,4.6v0h-2.6v-0.4c0-1.5-0.7-1.9-1.7-1.9c-1,0-1.7,0.4-1.7,1.9V386z"/>
			<path d="M170.7,380.7c0-3.4,1.8-4.6,4.3-4.6c2.5,0,4.3,1.2,4.3,4.6v4.9c0,3.4-1.8,4.6-4.3,4.6c-2.5,0-4.3-1.2-4.3-4.6V380.7z
				 M173.3,386c0,1.5,0.7,1.9,1.7,1.9c1,0,1.7-0.4,1.7-1.9v-5.6c0-1.5-0.7-1.9-1.7-1.9c-1,0-1.7,0.4-1.7,1.9V386z"/>
		</g>
	</g>
	<g>
		<g>
			<path d="M129.4,364.6h1.5v4.7h1.1v1.1h-1.1v2.1h-1.4v-2.1H126v-1.3L129.4,364.6z M129.5,369.4v-3.1h0l-2.3,3.1H129.5z"/>
			<path d="M132.8,367.8v-1.6h1.6v1.6H132.8z M132.8,371.1v-1.6h1.6v1.6H132.8z"/>
			<path d="M135.3,367.3c0-1.7,0.9-2.8,2.7-2.8c1.7,0,2.7,1.1,2.7,2.8v2.7c0,1.7-0.9,2.8-2.7,2.8c-1.7,0-2.7-1.1-2.7-2.8V367.3z
				 M136.8,369.8c0,1.3,0.4,1.7,1.2,1.7c0.8,0,1.2-0.4,1.2-1.7v-2.3c0-1.3-0.4-1.7-1.2-1.7c-0.8,0-1.2,0.4-1.2,1.7V369.8z"/>
			<path d="M141.4,367.3c0-1.7,0.9-2.8,2.7-2.8c1.7,0,2.7,1.1,2.7,2.8v2.7c0,1.7-0.9,2.8-2.7,2.8c-1.7,0-2.7-1.1-2.7-2.8V367.3z
				 M142.8,369.8c0,1.3,0.4,1.7,1.2,1.7c0.8,0,1.2-0.4,1.2-1.7v-2.3c0-1.3-0.4-1.7-1.2-1.7c-0.8,0-1.2,0.4-1.2,1.7V369.8z"/>
			<path d="M147.4,369.2V368h2.7v1.2H147.4z"/>
		</g>
	</g>
</g>
<g>
	<g>
		<g>
			<path d="M218.3,390v-13.7h3.7l2.4,9h0l2.4-9h3.7V390h-2.2v-10.8h0l-2.8,10.8h-2l-2.8-10.8h0V390H218.3z"/>
			<path d="M231.8,390v-13.7h7.2v2.3h-4.6v3.2h3.5v2.3h-3.5v3.6h4.7v2.3H231.8z"/>
			<path d="M246.4,388.9c-0.7,0.8-1.5,1.3-2.5,1.3c-2.5,0-4.3-1.2-4.3-4.6v-4.9c0-3.4,1.8-4.6,4.3-4.6c2.7,0,4.1,1.5,4.2,4.7h-2.6
				c0-1.8-0.6-2.3-1.6-2.3c-1,0-1.7,0.4-1.7,1.9v5.6c0,1.5,0.7,1.9,1.7,1.9c1,0,1.6-0.7,1.6-1.9v-0.8h-1.8V383h4.5v7h-1.4
				L246.4,388.9z"/>
			<path d="M255.1,380.1c-0.4-1.3-1-1.8-1.9-1.8c-0.9,0-1.4,0.6-1.4,1.5c0,2.1,5.9,2.2,5.9,6.5c0,2.4-1.6,3.9-4.4,3.9
				c-2.1,0-3.8-1.2-4.5-3.9l2.6-0.6c0.3,1.7,1.3,2.2,2,2.2c0.9,0,1.6-0.6,1.6-1.6c0-2.6-5.9-2.6-5.9-6.5c0-2.4,1.4-3.8,4.1-3.8
				c2.3,0,3.8,1.4,4.2,3.3L255.1,380.1z"/>
			<path d="M258.2,390v-13.7h2.6V390H258.2z"/>
			<path d="M267.6,380.1c-0.4-1.3-1-1.8-1.9-1.8c-0.9,0-1.4,0.6-1.4,1.5c0,2.1,5.9,2.2,5.9,6.5c0,2.4-1.6,3.9-4.4,3.9
				c-2.1,0-3.8-1.2-4.5-3.9l2.6-0.6c0.3,1.7,1.3,2.2,2,2.2c0.9,0,1.6-0.6,1.6-1.6c0-2.6-5.9-2.6-5.9-6.5c0-2.4,1.4-3.8,4.1-3.8
				c2.3,0,3.8,1.4,4.2,3.3L267.6,380.1z"/>
		</g>
	</g>
	<g>
		<g>
			<path d="M221.4,364.6h1.5v4.7h1.1v1.1h-1.1v2.1h-1.4v-2.1H218v-1.3L221.4,364.6z M221.5,369.4v-3.1h0l-2.3,3.1H221.5z"/>
			<path d="M224.8,367.8v-1.6h1.6v1.6H224.8z M224.8,371.1v-1.6h1.6v1.6H224.8z"/>
			<path d="M227.3,367.3c0-1.7,0.9-2.8,2.7-2.8c1.7,0,2.7,1.1,2.7,2.8v2.7c0,1.7-0.9,2.8-2.7,2.8c-1.7,0-2.7-1.1-2.7-2.8V367.3z
				 M228.8,369.8c0,1.3,0.4,1.7,1.2,1.7c0.8,0,1.2-0.4,1.2-1.7v-2.3c0-1.3-0.4-1.7-1.2-1.7c-0.8,0-1.2,0.4-1.2,1.7V369.8z"/>
			<path d="M233.4,367.3c0-1.7,0.9-2.8,2.7-2.8c1.7,0,2.7,1.1,2.7,2.8v2.7c0,1.7-0.9,2.8-2.7,2.8c-1.7,0-2.7-1.1-2.7-2.8V367.3z
				 M234.8,369.8c0,1.3,0.4,1.7,1.2,1.7c0.8,0,1.2-0.4,1.2-1.7v-2.3c0-1.3-0.4-1.7-1.2-1.7c-0.8,0-1.2,0.4-1.2,1.7V369.8z"/>
			<path d="M239.4,369.2V368h2.7v1.2H239.4z"/>
		</g>
	</g>
</g>
<g>
	<line fill="none" stroke="#FFDC00" stroke-miterlimit="10" x1="31" y1="110.6" x2="122" y2="110.6"/>
</g>
<g>
	<line fill="none" stroke="#FFDC00" stroke-miterlimit="10" x1="31" y1="165.6" x2="122" y2="165.6"/>
</g>
<g>
	<line fill="none" stroke="#FFDC00" stroke-miterlimit="10" x1="31" y1="220.6" x2="122" y2="220.6"/>
</g>
<g>
	<line fill="none" stroke="#FFDC00" stroke-miterlimit="10" x1="31" y1="275.6" x2="122" y2="275.6"/>
</g>
<g>
	<line fill="none" stroke="#FFDC00" stroke-miterlimit="10" x1="31" y1="330.6" x2="122" y2="330.6"/>
</g>
<g>
	<line fill="none" stroke="#FFDC00" stroke-miterlimit="10" x1="31" y1="385.6" x2="122" y2="385.6"/>
</g>
<line fill="none" stroke="#FFDC00" stroke-miterlimit="10" x1="31" y1="440.6" x2="320" y2="440.6"/>
<g>
	<g>
		<path fill="#F3D41F" d="M132.1,418.5h0.6v2.6h-0.6c0-1.4-0.9-2.2-2.3-2.2c-2,0-2.8,1.6-2.8,3.3c0,1.8,1,3.1,2.8,3.1
			c1.7,0,2.4-1.1,2.3-2.7H131v-0.5h2.7v0.5h-0.9v3.1h-0.6v-1.1h0c-0.6,1-1.5,1.2-2.6,1.2c-2,0-3.1-1.9-3.1-3.6
			c0-2.1,1.2-3.8,3.4-3.8c0.9,0,1.8,0.4,2.3,1.2h0V418.5z"/>
		<path fill="#F3D41F" d="M134.6,425.3h0.8v-6.4h-0.8v-0.4h1.4v6.8h0.8v0.4h-2.1V425.3z"/>
		<path fill="#F3D41F" d="M141.6,424.7L141.6,424.7c-0.3,0.8-1.1,1.1-1.9,1.1c-1,0-1.8-0.5-1.8-1.6c0-1.4,1.6-1.5,2.6-1.5h1.1v-0.4
			c0-0.9-0.5-1.3-1.4-1.3c-0.8,0-1.3,0.3-1.4,1.1h-0.6c0.1-1.1,1-1.5,2-1.5c1.3,0,2,0.4,2,1.7v2.9h0.7v0.4h-1.3V424.7z M139.8,425.4
			c1.3,0,1.8-1.1,1.8-2.2h-1.1c-0.7,0-1.9,0.1-1.9,1.1C138.6,425,139.2,425.4,139.8,425.4z"/>
		<path fill="#F3D41F" d="M148.1,424.8L148.1,424.8c-0.3,0.7-1,1.1-1.7,1.1c-1.6,0-2.4-1.1-2.4-2.6c0-1.4,0.8-2.5,2.3-2.5
			c0.7,0,1.5,0.3,1.7,1h0v-2.7h-0.9v-0.4h1.4v6.8h0.8v0.4h-1.4V424.8z M146.5,425.4c1.3,0,1.7-1.1,1.7-2.3c0-1.1-0.5-2.1-1.7-2.1
			c-1.2,0-1.8,1-1.8,2.1C144.7,424.4,145.1,425.4,146.5,425.4z"/>
		<path fill="#F3D41F" d="M163.1,419H162v6.2h1.1v0.5h-2.7v-0.5h1V419h0l-2.6,6.7h-0.6l-2.6-6.7h0v6.2h1v0.5H154v-0.5h1.1V419H154
			v-0.5h2.2l2.4,6.3l2.4-6.3h2.2V419z"/>
		<path fill="#F3D41F" d="M167.9,424.7L167.9,424.7c-0.3,0.8-1.1,1.1-1.9,1.1c-1,0-1.8-0.5-1.8-1.6c0-1.4,1.6-1.5,2.6-1.5h1.1v-0.4
			c0-0.9-0.5-1.3-1.4-1.3c-0.8,0-1.3,0.3-1.4,1.1h-0.6c0.1-1.1,1-1.5,2-1.5c1.3,0,2,0.4,2,1.7v2.9h0.7v0.4h-1.3V424.7z M166.2,425.4
			c1.3,0,1.8-1.1,1.8-2.2h-1.1c-0.7,0-1.9,0.1-1.9,1.1C164.9,425,165.5,425.4,166.2,425.4z"/>
		<path fill="#F3D41F" d="M170.3,425.3h1.1v-4.1h-1.1v-0.4h1.7v4.5h0.9v0.4h-2.5V425.3z M171.9,419.5h-0.7v-0.7h0.7V419.5z"/>
		<path fill="#F3D41F" d="M173.8,425.3h0.9v-4.1h-0.9v-0.4h1.4v0.8h0c0.3-0.6,0.9-0.9,1.6-0.9c1.9,0,1.8,1.4,1.8,2.5v2.1h0.8v0.4
			h-2.3v-0.4h0.9v-2.1c0-1.2,0-2.1-1.3-2c-1.3,0-1.5,1-1.5,2v2.1h0.9v0.4h-2.3V425.3z"/>
		<path fill="#F3D41F" d="M180.8,422.5h2.6v0.5h-2.6V422.5z"/>
		<path fill="#F3D41F" d="M184.7,425.2h1V419h-1v-0.5h5.5v2.1h-0.5V419h-3.4v2.8h1.8v-1.1h0.5v2.7h-0.5v-1.1h-1.8v2.9h1.3v0.5h-2.9
			V425.2z"/>
		<path fill="#F3D41F" d="M191.4,425.3h0.8v-6.4h-0.8v-0.4h1.4v6.8h0.8v0.4h-2.1V425.3z"/>
		<path fill="#F3D41F" d="M197.1,420.7c1.4,0,2.4,1,2.4,2.6c0,1.6-0.9,2.6-2.4,2.6c-1.4,0-2.4-1-2.4-2.6
			C194.7,421.7,195.7,420.7,197.1,420.7z M197.1,425.4c0.6,0,1.7-0.3,1.7-2.2c0-1.8-1.2-2.2-1.7-2.2c-0.5,0-1.7,0.3-1.7,2.2
			C195.4,425.1,196.5,425.4,197.1,425.4z"/>
		<path fill="#F3D41F" d="M203,420.7c1.4,0,2.4,1,2.4,2.6c0,1.6-0.9,2.6-2.4,2.6c-1.4,0-2.4-1-2.4-2.6
			C200.7,421.7,201.6,420.7,203,420.7z M203,425.4c0.6,0,1.7-0.3,1.7-2.2c0-1.8-1.2-2.2-1.7-2.2c-0.5,0-1.7,0.3-1.7,2.2
			C201.3,425.1,202.5,425.4,203,425.4z"/>
		<path fill="#F3D41F" d="M206.6,425.3h0.8v-4.1h-0.8v-0.4h1.4v1h0c0.2-0.6,0.7-1.1,1.3-1.1c0.1,0,0.3,0,0.4,0v0.5
			c-0.1,0-0.3,0-0.4,0c-1.1,0-1.4,1.1-1.4,2v2.1h1.1v0.4h-2.5V425.3z"/>
		<path fill="#F3D41F" d="M213.4,425.3h0.9v-6.4h-0.9v-0.4h1.4v3.2h0c0.3-0.7,1-1.1,1.8-1.1c1.6,0,2.3,1,2.3,2.5
			c0,1.5-0.7,2.6-2.3,2.6c-0.8,0-1.4-0.3-1.8-1.1h0v1h-1.4V425.3z M216.6,425.4c1.3,0,1.7-1.2,1.7-2.3c0-1.1-0.6-2-1.8-2
			c-1.2,0-1.7,1.2-1.7,2.2C214.8,424.4,215.4,425.4,216.6,425.4z"/>
		<path fill="#F3D41F" d="M225.1,421.2h-0.4l-1.9,4.7c-0.3,0.8-0.6,1.7-1.5,1.7c-0.3,0-0.5,0-0.7,0v-0.4c0.1,0,0.3,0,0.6,0
			c0.7,0,0.9-0.7,1.2-1.5l-1.9-4.6h-0.4v-0.4h1.9v0.4h-0.8l1.5,3.9l1.6-3.9h-0.8v-0.4h1.8V421.2z"/>
	</g>
</g>
<g>
	<g>
		<path fill="#F3D41F" d="M126.3,435.5h1v-6.2h-1v-0.5h2.4c1.3,0,3.2,0,3.2,1.8c0,0.9-0.6,1.5-1.4,1.7v0c1,0.1,1.6,0.7,1.6,1.7
			c0,2-2.1,2-3.4,2h-2.4V435.5z M127.9,432.1h1c1.1,0,2.3,0,2.3-1.5c0-1.3-1.2-1.3-2.3-1.3h-1V432.1z M127.9,435.5h1
			c1,0,2.5,0,2.5-1.5c0-1.4-1.1-1.4-1.9-1.4h-1.6V435.5z"/>
		<path fill="#F3D41F" d="M133.6,435.5h1v-6.2h-1v-0.5h2.7c1.4,0,2.9,0.1,2.9,1.9c0,1.3-0.7,1.7-1.6,1.8v0c0.7,0.2,0.8,0.2,1.2,1.5
			l0.5,1.5h0.6v0.5h-1.1l-0.7-2.1c-0.3-1-0.4-1.1-1.7-1.1h-1.2v2.8h1v0.5h-2.6V435.5z M135.2,432.3h1.2c1,0,2.1-0.1,2.1-1.6
			c0-1.4-0.9-1.4-2.1-1.4h-1.2V432.3z"/>
		<path fill="#F3D41F" d="M144.5,428.7c2.2,0,3.5,1.5,3.5,3.7c0,2.2-1.2,3.8-3.5,3.8c-2.3,0-3.5-1.5-3.5-3.8
			C141,430.1,142.2,428.7,144.5,428.7z M144.5,435.6c1.9,0,2.8-1.4,2.8-3.3c0-1.7-0.9-3.2-2.8-3.2c-2,0-2.8,1.5-2.8,3.2
			C141.7,434.2,142.5,435.6,144.5,435.6z"/>
		<path fill="#F3D41F" d="M148.8,435.5h0.7l2.8-6.7h0.8l2.7,6.7h0.7v0.5H154v-0.5h1.1l-0.8-2h-3.3l-0.8,2h1.1v0.5h-2.4V435.5z
			 M152.6,429.4l-1.5,3.6h2.9L152.6,429.4z"/>
		<path fill="#F3D41F" d="M157.3,435.5h1v-6.2h-1v-0.5h2.6c2.3,0,4,0.9,4,3.5c0,2.7-1.5,3.7-4,3.7h-2.6V435.5z M158.9,435.5h0.9
			c2.2,0,3.4-0.8,3.4-3.2c0-2.3-1.3-3-3.4-3h-0.9V435.5z"/>
		<path fill="#F3D41F" d="M167.3,435.5h0.7l2.8-6.7h0.8l2.7,6.7h0.7v0.5h-2.5v-0.5h1.1l-0.8-2h-3.3l-0.8,2h1.1v0.5h-2.4V435.5z
			 M171.1,429.4l-1.5,3.6h2.9L171.1,429.4z"/>
		<path fill="#F3D41F" d="M175.8,435.5h0.7l2.5-3.2l-2.3-3h-0.8v-0.5h2.5v0.5h-1l2,2.6l2-2.6h-1v-0.5h2.5v0.5H182l-2.4,3l2.5,3.2
			h0.7v0.5h-2.4v-0.5h1l-2.1-2.7l-2.2,2.7h1v0.5h-2.4V435.5z"/>
		<path fill="#F3D41F" d="M184,435.5h1v-6.2h-1v-0.5h5.7v2.2h-0.6v-1.8h-3.5v2.8h1.9V431h0.5v2.7h-0.5v-1.1h-1.9v2.9h3.6v-1.8h0.5
			v2.2H184V435.5z"/>
		<path fill="#F3D41F" d="M199.2,428.8h0.5v2.4h-0.5c0-1.3-0.5-2-1.9-2c-0.8,0-1.6,0.5-1.6,1.4c0,1.9,4.2,0.9,4.2,3.6
			c0,1.2-1.1,1.9-2.3,1.9c-0.9,0-1.6-0.2-2-1.1h0v0.9H195v-2.4h0.5c-0.1,1.1,0.7,2,1.8,2c0.8,0,1.8-0.4,1.8-1.5c0-2-4.2-1.2-4.2-3.6
			c0-1.2,1.1-1.9,2.3-1.9c0.7,0,1.5,0.2,1.8,0.8h0V428.8z"/>
		<path fill="#F3D41F" d="M204.9,428.7c2.2,0,3.5,1.5,3.5,3.7c0,2.2-1.2,3.8-3.5,3.8c-2.3,0-3.5-1.5-3.5-3.8
			C201.4,430.1,202.6,428.7,204.9,428.7z M204.9,435.6c1.9,0,2.8-1.4,2.8-3.3c0-1.7-0.9-3.2-2.8-3.2c-2,0-2.8,1.5-2.8,3.2
			C202.1,434.2,202.9,435.6,204.9,435.6z"/>
		<path fill="#F3D41F" d="M209.3,428.8h2.7v0.5h-1.2v3.6c0,1.5,0.4,2.7,2.1,2.7c1.7,0,2.1-1.2,2.1-2.7v-3.6h-1.2v-0.5h2.7v0.5h-0.9
			v3.6c0,1.9-0.6,3.2-2.7,3.2c-2.1,0-2.7-1.3-2.7-3.2v-3.6h-0.9V428.8z"/>
		<path fill="#F3D41F" d="M217.5,435.5h0.9v-6.2h-0.9v-0.5h1.9l4,6.7h0v-6.2h-1.1v-0.5h2.6v0.5H224v6.7h-1l-4-6.7h0v6.2h1.1v0.5
			h-2.6V435.5z"/>
		<path fill="#F3D41F" d="M226.1,435.5h1v-6.2h-1v-0.5h2.6c2.3,0,4,0.9,4,3.5c0,2.7-1.5,3.7-4,3.7h-2.6V435.5z M227.7,435.5h0.9
			c2.2,0,3.4-0.8,3.4-3.2c0-2.3-1.3-3-3.4-3h-0.9V435.5z"/>
		<path fill="#F3D41F" d="M241.9,428.8h0.5v2.4h-0.5c0-1.3-0.5-2-1.9-2c-0.8,0-1.6,0.5-1.6,1.4c0,1.9,4.2,0.9,4.2,3.6
			c0,1.2-1.1,1.9-2.3,1.9c-0.9,0-1.6-0.2-2-1.1h0v0.9h-0.5v-2.4h0.5c-0.1,1.1,0.7,2,1.8,2c0.8,0,1.8-0.4,1.8-1.5
			c0-2-4.2-1.2-4.2-3.6c0-1.2,1.1-1.9,2.3-1.9c0.7,0,1.5,0.2,1.8,0.8h0V428.8z"/>
		<path fill="#F3D41F" d="M245.6,435.5h1.2v-2.5l-2.4-3.8h-0.5v-0.5h2.2v0.5h-1l2,3.2l2.1-3.2h-1v-0.5h2.1v0.5h-0.5l-2.4,3.8v2.5
			h1.2v0.5h-3V435.5z"/>
		<path fill="#F3D41F" d="M255.9,428.8h0.5v2.4h-0.5c0-1.3-0.5-2-1.9-2c-0.8,0-1.6,0.5-1.6,1.4c0,1.9,4.2,0.9,4.2,3.6
			c0,1.2-1.1,1.9-2.3,1.9c-0.9,0-1.6-0.2-2-1.1h0v0.9h-0.5v-2.4h0.5c-0.1,1.1,0.7,2,1.8,2c0.8,0,1.8-0.4,1.8-1.5
			c0-2-4.2-1.2-4.2-3.6c0-1.2,1.1-1.9,2.3-1.9c0.7,0,1.5,0.2,1.8,0.8h0V428.8z"/>
		<path fill="#F3D41F" d="M259.7,435.5h1.2v-6.2h-2.2v1.7h-0.6v-2.1h6.1v2.1h-0.6v-1.7h-2.2v6.2h1.2v0.5h-3V435.5z"/>
		<path fill="#F3D41F" d="M265.5,435.5h1v-6.2h-1v-0.5h5.7v2.2h-0.6v-1.8h-3.5v2.8h1.9V431h0.5v2.7h-0.5v-1.1h-1.9v2.9h3.6v-1.8h0.5
			v2.2h-5.8V435.5z"/>
		<path fill="#F3D41F" d="M282,429.3h-1.1v6.2h1.1v0.5h-2.7v-0.5h1v-6.2h0l-2.6,6.7h-0.6l-2.6-6.7h0v6.2h1v0.5h-2.7v-0.5h1.1v-6.2
			h-1.1v-0.5h2.2l2.4,6.3l2.4-6.3h2.2V429.3z"/>
	</g>
</g>
<line fill="none" stroke="#FFDC00" stroke-miterlimit="10" x1="0" y1="83.1" x2="320" y2="83.1"/>
<circle stroke="#FFDC00" stroke-miterlimit="10" cx="16" cy="83.1" r="10"/>
<g>
	<g>
		<path fill="#231815" d="M10.4,86l1.8-1.8c1.4-1.4,2.4-2.4,2.4-3.2c0-1.1-0.6-1.6-1.7-1.6c-1.1,0-1.7,0.9-1.7,1.9h-0.7
			c0-1.5,1-2.4,2.5-2.4c1.3,0,2.3,0.7,2.3,2.1c0,0.9-0.6,1.7-2.1,3.1L11,86.3h3.8v-1.2h0.6v1.8h-5V86z"/>
		<path fill="#231815" d="M18.6,82.6c1.1,0,2.1-0.4,2.1-1.6c0-1.1-0.7-1.6-1.7-1.6s-1.6,0.7-1.7,1.7h-0.7c0-1.4,1.1-2.2,2.4-2.2
			c1.4,0,2.3,0.8,2.3,2.2c0,1-0.8,1.6-1.7,1.8v0c1.1,0.2,1.7,0.8,1.7,2c0,1.4-1.2,2.1-2.5,2.1c-1.4,0-2.4-0.8-2.4-2.3h0.7
			c0,1.2,0.7,1.8,1.8,1.8c0.9,0,1.7-0.7,1.7-1.6c0-1.3-1-1.7-2.1-1.7V82.6z"/>
	</g>
	<g>
		<path fill="#FFDC00" d="M10.4,86l1.8-1.8c1.4-1.4,2.4-2.4,2.4-3.2c0-1.1-0.6-1.6-1.7-1.6c-1.1,0-1.7,0.9-1.7,1.9h-0.7
			c0-1.5,1-2.4,2.5-2.4c1.3,0,2.3,0.7,2.3,2.1c0,0.9-0.6,1.7-2.1,3.1L11,86.3h3.8v-1.2h0.6v1.8h-5V86z"/>
		<path fill="#FFDC00" d="M18.6,82.6c1.1,0,2.1-0.4,2.1-1.6c0-1.1-0.7-1.6-1.7-1.6s-1.6,0.7-1.7,1.7h-0.7c0-1.4,1.1-2.2,2.4-2.2
			c1.4,0,2.3,0.8,2.3,2.2c0,1-0.8,1.6-1.7,1.8v0c1.1,0.2,1.7,0.8,1.7,2c0,1.4-1.2,2.1-2.5,2.1c-1.4,0-2.4-0.8-2.4-2.3h0.7
			c0,1.2,0.7,1.8,1.8,1.8c0.9,0,1.7-0.7,1.7-1.6c0-1.3-1-1.7-2.1-1.7V82.6z"/>
	</g>
</g>
<g>
	<rect x="31" y="15" fill="none" width="63.9" height="45"/>
	<g>
		<path fill="#FFDC00" d="M94.5,41.4c-0.5,1-1.6,2.9-3.1,2.9c-0.7,0-0.8-0.5-0.8-1c0-0.7,0.3-1.4,0.5-2.2l2.1-6
			c0.4-1,0.6-1.6,0.6-2.4c0-1.4-1.2-2.5-3-2.5c-1.8,0-3.9,1.4-6,4.2h-0.1l0,0c0,0-0.2,0-0.4,0c0.5-2.7,0.6-5.1,0.2-7
			c0-0.2-0.1-0.3-0.1-0.5c-0.3,2.1-0.9,4.5-1.8,7.1c0,0.1-0.1,0.2-0.1,0.3h0l-2.8,8.1c-0.2,0.6-0.4,1.3-0.7,1.9h0h2.3l2.4-6.8
			c1.4-3.9,4.8-6.9,6.7-6.9c0.9,0,1.3,0.7,1.3,1.2c0,0.4-0.1,0.8-0.3,1.3L88.8,41c-0.2,0.7-0.4,1.3-0.4,1.9c0,1.4,1.1,2,2.5,2
			c2.5,0,3.6-2.4,4-3.2L94.5,41.4z"/>
		<path fill="#FFDC00" d="M42.2,40.6L42.2,40.6l2.8-8.1c0.2-0.6,0.4-1.3,0.7-1.9h0h-2.3l0,0c0,0,0,0,0,0L41,37.4
			c-1.4,3.9-4.8,6.9-6.7,6.9c-0.9,0-1.3-0.7-1.3-1.2c0-0.4,0.1-0.8,0.3-1.3l2.4-6.7h0l1.6-4.5h-2.4l-1.6,4.5l-1.7,4.8
			c-0.4,1-0.6,1.6-0.6,2.4c0,1.4,1.2,2.5,3,2.5c1.8,0,3.9-1.4,6-4.2H40l0,0c0,0,0.2,0,0.4,0c-0.5,2.7-0.6,5.1-0.2,7
			c0,0.2,0.1,0.3,0.1,0.5c0.3-2.1,0.9-4.5,1.9-7.1C42.1,40.8,42.2,40.7,42.2,40.6z"/>
		<path fill="#FFDC00" d="M84.6,20.9c-0.6-3.2-2.2-5.9-6.4-5.6c-3.6,0.6-6.4,2.4-8.8,5.2c-1.5,1.7-2.8,3.8-3.9,6.2
			c0.5,0.6,0.8,1.3,0.8,2.1c0,1.8-1.4,3.3-3.2,3.3l-1.8,5.1c-0.6,1.6-1.3,3.1-2,4.5c-0.5,1-1.6,2.6-3,2.6c-0.7,0-0.8-0.5-0.8-1
			c0-0.7,0.3-1.4,0.5-2.2l2.1-6c0.4-1,0.6-1.6,0.6-2.4c0-1.4-1.2-2.5-3-2.5c-1.8,0-3.8,1.4-5.8,4.1l1.3-3.6h-2.4l-1.3,3.8l0,0
			l-0.2,0.7l0,0l0,0L44,44.4h2.3l2.4-6.8c1.4-3.9,4.8-6.9,6.7-6.9c0.9,0,1.3,0.7,1.3,1.2c0,0.4-0.1,0.8-0.3,1.3L53.7,41
			c-0.2,0.7-0.4,1.3-0.4,1.9c0,1.4,1.1,2,2.5,2c1,0,1.7-0.3,2.3-0.8c-2.8,5-6.4,8.4-11.6,9.2c-4,0.3-5.7-2.1-6.3-5.1
			c-0.4,2.3-0.4,4.4-0.1,6c0.6,3.2,2.2,5.9,6.4,5.6c7-1.1,11.1-7,14.4-15.1c0.3,0.1,0.7,0.2,1.1,0.2c2.5,0,3.6-2.4,4-3.2
			c0-0.1,0.1-0.2,0.2-0.3c0.7,2,2.4,3.6,4.8,3.6c3.7,0,8.5-4.3,8.5-9.3c0-2.4-1.6-5.5-5-5.5c-3.8,0-8.6,4-8.6,9.3
			c0,0.5,0.1,1,0.2,1.4c-0.1,0.3-0.3,0.5-0.4,0.7c-0.5,1-1.6,2.9-3.1,2.9c-0.7,0-0.8-0.5-0.8-1c0-0.6,0.2-1.2,0.4-1.8
			c0,0,0-0.1,0.1-0.1c0.1-0.4,0.3-0.8,0.4-1.1c3.5-9.7,7.7-17.1,15.6-18.4c4-0.3,5.7,2.1,6.3,5.1C84.9,24.6,84.9,22.6,84.6,20.9z
			 M74.4,30.4c2.2,0,3,1.3,3,3.4c0,2.7-2.4,10.5-6.5,10.5c-1.7,0-2.8-1-2.8-3.3C68.1,37.7,70.5,30.4,74.4,30.4z"/>
		<circle fill="#FFDC00" cx="62.9" cy="28.8" r="2.7"/>
	</g>
</g>
<g>
	<g>
		<path fill="#F3D41F" d="M106.8,41.7c-2,0-2.3-2.2-2.3-3.8c0-1.6,0.3-3.6,2.3-3.6c2,0,2.3,2,2.3,3.6
			C109.1,39.5,108.8,41.7,106.8,41.7z M106.8,34.8c-1.6,0-1.7,2-1.7,3.1c0,1.1,0.2,3.3,1.7,3.3c1.6,0,1.7-2.2,1.7-3.3
			C108.5,36.8,108.3,34.8,106.8,34.8z"/>
		<path fill="#F3D41F" d="M112.8,34.3c1.2,0,2.2,0.6,2.2,1.8c0,0.9-0.5,1.6-1.4,1.7v0c0.9,0.2,1.5,0.8,1.5,1.8c0,1.4-1.1,2-2.3,2
			c-1.3,0-2.3-0.7-2.3-2c0-1,0.6-1.7,1.6-1.8v0c-1-0.2-1.5-0.8-1.5-1.8C110.7,34.9,111.8,34.3,112.8,34.3z M112.8,41.2
			c1,0,1.7-0.7,1.7-1.6c0-1-0.7-1.5-1.7-1.5c-0.9,0-1.6,0.5-1.6,1.5C111.2,40.7,111.9,41.2,112.8,41.2z M112.8,37.7
			c0.9,0,1.6-0.5,1.6-1.5c0-0.9-0.7-1.4-1.6-1.4c-0.9,0-1.6,0.5-1.6,1.4C111.3,37.2,112,37.7,112.8,37.7z"/>
		<path fill="#F3D41F" d="M117.1,40.9h0.8v0.7h-0.8V40.9z"/>
		<path fill="#F3D41F" d="M122.2,41.7c-2,0-2.3-2.2-2.3-3.8c0-1.6,0.3-3.6,2.3-3.6c2,0,2.3,2,2.3,3.6
			C124.5,39.5,124.2,41.7,122.2,41.7z M122.2,34.8c-1.6,0-1.7,2-1.7,3.1c0,1.1,0.2,3.3,1.7,3.3c1.6,0,1.7-2.2,1.7-3.3
			C123.9,36.8,123.7,34.8,122.2,34.8z"/>
		<path fill="#F3D41F" d="M126.9,41.1h1.1v-6c-0.5,0.6-1.1,1-1.8,1.5v-0.7c0.6-0.4,1.2-1,1.7-1.5h0.7v6.7h1.1v0.5h-2.9V41.1z"/>
		<path fill="#F3D41F" d="M132.5,40.9h0.8v0.7h-0.8V40.9z"/>
		<path fill="#F3D41F" d="M135.2,40.8l1.7-1.6c1.3-1.3,2.2-2.2,2.2-2.9c0-1-0.5-1.5-1.5-1.5c-1,0-1.5,0.8-1.6,1.8h-0.6
			c0-1.4,1-2.2,2.3-2.2c1.2,0,2.1,0.7,2.1,1.9c0,0.9-0.5,1.6-1.9,2.9l-2.1,2h3.5V40h0.5v1.6h-4.6V40.8z"/>
		<path fill="#F3D41F" d="M143.6,41.7c-2,0-2.3-2.2-2.3-3.8c0-1.6,0.3-3.6,2.3-3.6c2,0,2.3,2,2.3,3.6
			C146,39.5,145.7,41.7,143.6,41.7z M143.6,34.8c-1.6,0-1.7,2-1.7,3.1c0,1.1,0.2,3.3,1.7,3.3c1.6,0,1.7-2.2,1.7-3.3
			C145.3,36.8,145.2,34.8,143.6,34.8z"/>
		<path fill="#F3D41F" d="M148.3,41.1h1.1v-6c-0.5,0.6-1.1,1-1.8,1.5v-0.7c0.6-0.4,1.2-1,1.7-1.5h0.7v6.7h1.1v0.5h-2.9V41.1z"/>
		<path fill="#F3D41F" d="M155.5,41.1h1.1v-1.6h-3.4v-0.7l3.2-4.4h0.8v4.6h1v0.5h-1v1.6h1v0.5h-2.7V41.1z M156.6,39.1v-4h0l-2.9,4
			H156.6z"/>
		<path fill="#F3D41F" d="M162.6,41.1h1v-6.2h-1v-0.5h5.5v2.1h-0.5v-1.7h-3.4v2.8h1.8v-1.1h0.5v2.7H166v-1.1h-1.8v2.9h1.3v0.5h-2.9
			V41.1z"/>
		<path fill="#F3D41F" d="M169.2,41.1h1v-6.2h-1v-0.5h2.7c1.4,0,2.9,0.1,2.9,1.9c0,1.3-0.7,1.7-1.6,1.8v0c0.7,0.2,0.8,0.2,1.2,1.5
			l0.5,1.5h0.6v0.5h-1.1l-0.7-2.1c-0.3-1-0.4-1.1-1.7-1.1h-1.2v2.8h1v0.5h-2.6V41.1z M170.8,37.9h1.2c1,0,2.1-0.1,2.1-1.6
			c0-1.4-0.9-1.4-2.1-1.4h-1.2V37.9z"/>
		<path fill="#F3D41F" d="M176.5,41.1h1v-6.2h-1v-0.5h2.6v0.5h-1v6.2h1v0.5h-2.6V41.1z"/>
		<path fill="#F3D41F" d="M180.4,41.1h1v-6.2h-1v-0.5h2.6c2.3,0,4,0.9,4,3.5c0,2.7-1.5,3.7-4,3.7h-2.6V41.1z M182,41.1h0.9
			c2.2,0,3.4-0.8,3.4-3.2c0-2.3-1.3-3-3.4-3H182V41.1z"/>
		<path fill="#F3D41F" d="M187.8,41.1h0.7l2.8-6.7h0.8l2.7,6.7h0.7v0.5H193v-0.5h1.1l-0.8-2h-3.3l-0.8,2h1.1v0.5h-2.4V41.1z
			 M191.6,35l-1.5,3.6h2.9L191.6,35z"/>
		<path fill="#F3D41F" d="M196.6,41.1h1.2v-2.5l-2.4-3.8H195v-0.5h2.2v0.5h-1l2,3.2l2.1-3.2h-1v-0.5h2.1v0.5h-0.5l-2.4,3.8v2.5h1.2
			v0.5h-3V41.1z"/>
		<path fill="#F3D41F" d="M210.9,42.5h1.8v-9.1h-3.2v2.4h-0.8v-3.1h8.9v3.1h-0.8v-2.4h-3.2v9.1h1.8v0.7h-4.4V42.5z"/>
		<path fill="#F3D41F" d="M220,42.5h1.4v-9.1H220v-0.7h3.8v0.7h-1.4v9.1h1.4v0.7H220V42.5z"/>
		<path fill="#F3D41F" d="M239,33.5h-1.6v9.1h1.6v0.7H235v-0.7h1.4v-9.1h0l-3.7,9.8h-0.8l-3.7-9.8h0v9.1h1.4v0.7h-3.9v-0.7h1.6v-9.1
			h-1.6v-0.7h3.2l3.5,9.2l3.5-9.2h3.2V33.5z"/>
		<path fill="#F3D41F" d="M240.5,42.5h1.4v-9.1h-1.4v-0.7h8.3V36H248v-2.6h-5.1v4.1h2.7V36h0.8V40h-0.8v-1.7h-2.7v4.2h5.2V40h0.8
			v3.3h-8.4V42.5z"/>
		<path fill="#F3D41F" d="M257.9,42.5h1.8v-9.1h-3.2v2.4h-0.8v-3.1h8.9v3.1h-0.8v-2.4h-3.2v9.1h1.8v0.7h-4.4V42.5z"/>
		<path fill="#F3D41F" d="M264.1,42.5h1l4-9.8h1.2l4,9.8h1v0.7h-3.6v-0.7h1.6l-1.2-3h-4.8l-1.2,3h1.6v0.7h-3.5V42.5z M269.7,33.6
			l-2.2,5.2h4.3L269.7,33.6z"/>
		<path fill="#F3D41F" d="M276.7,42.5h1.4v-9.1h-1.4v-0.7h3.5c1.8,0,4.6,0,4.6,2.6c0,1.3-0.9,2.1-2.1,2.5v0c1.5,0.1,2.4,1,2.4,2.5
			c0,2.9-3,2.9-4.9,2.9h-3.5V42.5z M279,37.6h1.4c1.6,0,3.4,0,3.4-2.2c0-1.9-1.7-1.9-3.3-1.9H279V37.6z M279,42.5h1.4
			c1.5,0,3.7,0,3.7-2.2c0-2-1.6-2-2.8-2H279V42.5z"/>
		<path fill="#F3D41F" d="M287.1,42.5h1.4v-9.1h-1.4v-0.7h4.3v0.7h-1.9v9.1h4.8v-2.4h0.8v3.1h-8V42.5z"/>
		<path fill="#F3D41F" d="M296.5,42.5h1.4v-9.1h-1.4v-0.7h8.3V36H304v-2.6h-5.1v4.1h2.7V36h0.8V40h-0.8v-1.7h-2.7v4.2h5.2V40h0.8
			v3.3h-8.4V42.5z"/>
	</g>
</g>
<g>
	<g>
		<path fill="#F3D41F" d="M238.2,70.1h0.6v2.6h-0.6c0-1.4-0.9-2.2-2.3-2.2c-2,0-2.8,1.6-2.8,3.3c0,1.8,1,3.1,2.8,3.1
			c1.7,0,2.4-1.1,2.3-2.7h-1.2v-0.5h2.7v0.5h-0.9v3.1h-0.6v-1.1h0c-0.6,1-1.5,1.2-2.6,1.2c-2,0-3.1-1.9-3.1-3.6
			c0-2.1,1.2-3.8,3.4-3.8c0.9,0,1.8,0.4,2.3,1.2h0V70.1z"/>
		<path fill="#F3D41F" d="M240.6,76.9h0.8v-6.4h-0.8v-0.4h1.4v6.8h0.8v0.4h-2.1V76.9z"/>
		<path fill="#F3D41F" d="M247.5,76.3L247.5,76.3c-0.3,0.8-1.1,1.1-1.9,1.1c-1,0-1.8-0.5-1.8-1.6c0-1.4,1.6-1.5,2.6-1.5h1.1V74
			c0-0.9-0.5-1.3-1.4-1.3c-0.8,0-1.3,0.3-1.4,1.1H244c0.1-1.1,1-1.5,2-1.5c1.3,0,2,0.4,2,1.7v2.9h0.7v0.4h-1.3V76.3z M245.7,77
			c1.3,0,1.8-1.1,1.8-2.2h-1.1c-0.7,0-1.9,0.1-1.9,1.1C244.5,76.6,245,77,245.7,77z"/>
		<path fill="#F3D41F" d="M254,76.4L254,76.4c-0.3,0.7-1,1.1-1.7,1.1c-1.6,0-2.4-1.1-2.4-2.6c0-1.4,0.8-2.5,2.3-2.5
			c0.7,0,1.5,0.3,1.7,1h0v-2.7h-0.9v-0.4h1.4v6.8h0.8v0.4H254V76.4z M252.3,77c1.3,0,1.7-1.1,1.7-2.3c0-1.1-0.5-2.1-1.7-2.1
			c-1.2,0-1.8,1-1.8,2.1C250.5,76,251,77,252.3,77z"/>
		<path fill="#F3D41F" d="M259.8,76.9h1v-6.2h-1v-0.5h2.9v0.5h-1.3v6.2h3.3v-1.7h0.5v2.1h-5.5V76.9z"/>
		<path fill="#F3D41F" d="M268.9,72.3c1.4,0,2.4,1,2.4,2.6c0,1.6-0.9,2.6-2.4,2.6c-1.4,0-2.4-1-2.4-2.6
			C266.6,73.3,267.5,72.3,268.9,72.3z M268.9,77c0.6,0,1.7-0.3,1.7-2.2c0-1.8-1.2-2.2-1.7-2.2c-0.5,0-1.7,0.3-1.7,2.2
			C267.2,76.7,268.4,77,268.9,77z"/>
		<path fill="#F3D41F" d="M277.1,76.9h0.9v0.4h-1.4v-0.8h0c-0.3,0.6-0.8,0.9-1.6,0.9c-1.2,0-1.8-0.5-1.8-1.8v-2.8h-0.8v-0.4h1.4v3.2
			c0,1,0.4,1.4,1.4,1.4c0.9,0,1.4-0.7,1.4-1.6v-2.6h-1v-0.4h1.5V76.9z"/>
		<path fill="#F3D41F" d="M279.1,76.9h0.9v-4.1h-0.9v-0.4h1.4v0.8h0c0.3-0.6,0.9-0.9,1.6-0.9c1.9,0,1.8,1.4,1.8,2.5v2.1h0.8v0.4
			h-2.3v-0.4h0.9v-2.1c0-1.2,0-2.1-1.3-2c-1.3,0-1.5,1-1.5,2v2.1h0.9v0.4h-2.3V76.9z"/>
		<path fill="#F3D41F" d="M291.5,72.8h-0.8v4.1c0,1.5-0.6,2.3-2.3,2.3c-0.9,0-2.1-0.3-2-1.5h0.5c0.1,0.8,0.9,1,1.5,1
			c1.4,0,1.7-0.9,1.7-2.1v-0.5h0c-0.4,0.7-1,1-1.8,1c-1.4,0-2.3-1.1-2.3-2.5c0-1.4,0.7-2.5,2.2-2.5c0.8,0,1.5,0.3,1.8,1h0v-0.9h1.4
			V72.8z M288.4,76.9c1.3,0,1.7-1.1,1.7-2.2c0-1.1-0.6-2-1.7-2c-1.2,0-1.8,1-1.8,2C286.6,75.9,287.2,76.9,288.4,76.9z"/>
		<path fill="#F3D41F" d="M293.2,75c0,1.2,0.6,2.1,1.8,2.1c0.8,0,1.5-0.4,1.6-1.2h0.6c-0.1,1.1-1.2,1.6-2.1,1.6
			c-1.6,0-2.5-0.9-2.5-2.7c0-1.4,0.8-2.5,2.4-2.5c1.7,0,2.4,1.2,2.3,2.7H293.2z M296.7,74.5c0-1.1-0.6-1.8-1.7-1.8
			c-1,0-1.7,0.8-1.7,1.8H296.7z"/>
	</g>
</g>
<circle stroke="#FFDC00" stroke-miterlimit="10" cx="221.5" cy="73.5" r="6.5"/>
<g>
	<g>
		<path fill="#231815" d="M221.3,73.5c1,0,1.9-0.3,1.9-1.5c0-1-0.6-1.5-1.5-1.5s-1.5,0.6-1.6,1.6h-0.6c0-1.3,1-2.1,2.2-2.1
			c1.3,0,2.1,0.7,2.1,2c0,0.9-0.7,1.5-1.5,1.6v0c1,0.2,1.6,0.7,1.6,1.8c0,1.3-1.1,1.9-2.3,1.9c-1.3,0-2.2-0.8-2.2-2.1h0.6
			c0,1.1,0.6,1.6,1.7,1.6c0.8,0,1.5-0.6,1.5-1.5c0-1.2-0.9-1.5-1.9-1.5V73.5z"/>
	</g>
	<g>
		<path fill="#F3D41F" d="M221.3,73.5c1,0,1.9-0.3,1.9-1.5c0-1-0.6-1.5-1.5-1.5s-1.5,0.6-1.6,1.6h-0.6c0-1.3,1-2.1,2.2-2.1
			c1.3,0,2.1,0.7,2.1,2c0,0.9-0.7,1.5-1.5,1.6v0c1,0.2,1.6,0.7,1.6,1.8c0,1.3-1.1,1.9-2.3,1.9c-1.3,0-2.2-0.8-2.2-2.1h0.6
			c0,1.1,0.6,1.6,1.7,1.6c0.8,0,1.5-0.6,1.5-1.5c0-1.2-0.9-1.5-1.9-1.5V73.5z"/>
	</g>
</g>
<g>
	<g>
		<path fill="#F3D41F" d="M140.3,76.9h0.9v-6.2h-0.9v-0.5h1.9l4,6.7h0v-6.2H145v-0.5h2.6v0.5h-0.9v6.7h-1l-4-6.7h0v6.2h1.1v0.5h-2.6
			V76.9z"/>
		<path fill="#F3D41F" d="M148.7,76.9h1v-6.2h-1v-0.5h5.7v2.2h-0.6v-1.8h-3.5v2.8h1.9v-1.1h0.5v2.7h-0.5V74h-1.9v2.9h3.6v-1.8h0.5
			v2.2h-5.8V76.9z"/>
		<path fill="#F3D41F" d="M159.7,70c2.2,0,3.5,1.5,3.5,3.7c0,2.2-1.2,3.8-3.5,3.8c-2.3,0-3.5-1.5-3.5-3.8
			C156.3,71.5,157.5,70,159.7,70z M159.7,77c1.9,0,2.8-1.4,2.8-3.3c0-1.7-0.9-3.2-2.8-3.2c-2,0-2.8,1.5-2.8,3.2
			C156.9,75.6,157.7,77,159.7,77z"/>
	</g>
</g>
<circle stroke="#FFDC00" stroke-miterlimit="10" cx="129.5" cy="73.5" r="6.5"/>
<g>
	<g>
		<path fill="#231815" d="M127.4,76.5l1.7-1.6c1.3-1.3,2.2-2.2,2.2-2.9c0-1-0.5-1.5-1.5-1.5c-1,0-1.5,0.8-1.6,1.8h-0.6
			c0-1.4,1-2.2,2.3-2.2c1.2,0,2.1,0.7,2.1,1.9c0,0.9-0.5,1.6-1.9,2.9l-2.1,2h3.5v-1.1h0.5v1.6h-4.6V76.5z"/>
	</g>
	<g>
		<path fill="#F3D41F" d="M127.4,76.5l1.7-1.6c1.3-1.3,2.2-2.2,2.2-2.9c0-1-0.5-1.5-1.5-1.5c-1,0-1.5,0.8-1.6,1.8h-0.6
			c0-1.4,1-2.2,2.3-2.2c1.2,0,2.1,0.7,2.1,1.9c0,0.9-0.5,1.6-1.9,2.9l-2.1,2h3.5v-1.1h0.5v1.6h-4.6V76.5z"/>
	</g>
</g>
<g>
	<g>
		<path fill="#F3D41F" d="M54.2,70.1h0.6v2.6h-0.6c0-1.4-0.9-2.2-2.3-2.2c-2,0-2.8,1.6-2.8,3.3c0,1.8,1,3.1,2.8,3.1
			c1.7,0,2.4-1.1,2.3-2.7h-1.2v-0.5h2.7v0.5h-0.9v3.1h-0.6v-1.1h0c-0.6,1-1.5,1.2-2.6,1.2c-2,0-3.1-1.9-3.1-3.6
			c0-2.1,1.2-3.8,3.4-3.8c0.9,0,1.8,0.4,2.3,1.2h0V70.1z"/>
		<path fill="#F3D41F" d="M56.6,76.9h0.8v-6.4h-0.8v-0.4H58v6.8h0.8v0.4h-2.1V76.9z"/>
		<path fill="#F3D41F" d="M63.5,76.3L63.5,76.3c-0.3,0.8-1.1,1.1-1.9,1.1c-1,0-1.8-0.5-1.8-1.6c0-1.4,1.6-1.5,2.6-1.5h1.1V74
			c0-0.9-0.5-1.3-1.4-1.3c-0.8,0-1.3,0.3-1.4,1.1H60c0.1-1.1,1-1.5,2-1.5c1.3,0,2,0.4,2,1.7v2.9h0.7v0.4h-1.3V76.3z M61.7,77
			c1.3,0,1.8-1.1,1.8-2.2h-1.1c-0.7,0-1.9,0.1-1.9,1.1C60.5,76.6,61,77,61.7,77z"/>
		<path fill="#F3D41F" d="M70,76.4L70,76.4c-0.3,0.7-1,1.1-1.7,1.1c-1.6,0-2.4-1.1-2.4-2.6c0-1.4,0.8-2.5,2.3-2.5
			c0.7,0,1.5,0.3,1.7,1h0v-2.7h-0.9v-0.4h1.4v6.8h0.8v0.4H70V76.4z M68.3,77c1.3,0,1.7-1.1,1.7-2.3c0-1.1-0.5-2.1-1.7-2.1
			c-1.2,0-1.8,1-1.8,2.1C66.5,76,67,77,68.3,77z"/>
	</g>
</g>
<circle stroke="#FFDC00" stroke-miterlimit="10" cx="37.5" cy="73.5" r="6.5"/>
<g>
	<g>
		<path fill="#231815" d="M36.4,76.9h1.1v-6c-0.5,0.6-1.1,1-1.8,1.5v-0.7c0.6-0.4,1.2-1,1.7-1.5h0.7v6.7h1.1v0.5h-2.9V76.9z"/>
	</g>
	<g>
		<path fill="#F3D41F" d="M36.4,76.9h1.1v-6c-0.5,0.6-1.1,1-1.8,1.5v-0.7c0.6-0.4,1.2-1,1.7-1.5h0.7v6.7h1.1v0.5h-2.9V76.9z"/>
	</g>
</g>
</svg>
